<?xml version="1.0" standalone="no"?><!DOCTYPE svg PUBLIC "-//W3C//DTD SVG 1.1//EN" "http://www.w3.org/Graphics/SVG/1.1/DTD/svg11.dtd"><svg class="icon" width="200px" height="200.00px" viewBox="0 0 1024 1024" version="1.1" xmlns="http://www.w3.org/2000/svg"><path d="M983.630769 546.845538c4.923077 63.384615-5.292308 99.2-30.523077 107.2-25.353846 8-59.446154 10.707692-102.276923 8-20.8-44.430769-56.246154-66.461538-106.215384-66.215384-49.969231 0.246154-80.861538 22.4-92.43077 66.215384l-251.446153 3.446154c-12.8-46.4-46.153846-69.661538-100.307693-69.661538s-86.153846 24.123077-96.123077 72.492308l-119.384615 0.984615-54.030769 186.092308h819.938461c35.815385-0.492308 66.215385-10.830769 91.076923-31.015385 22.769231-18.461538 39.384615-47.876923 49.969231-88.246154 1.846154-7.015385 2.584615-14.276923 2.092308-21.661538l-10.338462-167.63077z" fill="#D4F1FF" /><path d="M14.030769 880.753231c-3.938462 0-7.753846-1.846154-10.092307-5.046154-2.338462-3.2-3.2-7.261538-2.092308-11.2l61.415384-211.323077c1.6-5.415385 6.523077-9.107692 12.061539-9.107692l109.784615-0.861539c17.107692-47.630769 56.738462-72.615385 115.323077-72.615384 57.846154 0 98.584615 24 118.153846 69.415384l215.384616-2.953846c18.338462-43.2 56.369231-66.092308 110.523077-66.461538 54.153846-0.369231 96.246154 22.769231 122.092307 66.953846 32.984615 1.230769 59.446154-1.353846 78.892308-7.507693 8.615385-2.707692 15.630769-24.861538 13.784615-68.307692l-0.861538-13.292308c-0.369231-6.892308 4.8-12.923077 11.815385-13.415384l25.230769-1.723077c7.015385-0.492308 12.923077 4.676923 13.538461 11.692308 0.369231 5.046154 0.738462 10.092308 0.861539 14.76923l9.476923 153.23077c0.615385 9.969231-0.369231 19.938462-2.830769 29.538461-11.938462 45.415385-31.630769 79.630769-58.584616 101.538462-29.292308 23.753846-65.230769 36.184615-106.707692 36.676923H14.030769z m16.861539-25.353846h819.938461c35.692308-0.492308 66.338462-10.830769 91.076923-31.015385 22.646154-18.461538 39.507692-48.123077 49.969231-88.246154 1.846154-7.015385 2.584615-14.276923 2.092308-21.661538l-3.569231-57.723077c-1.107692 1.476923-2.338462 2.953846-3.446154 4.307692-3.446154 3.815385-8.738462 5.169231-13.661538 3.569231-4.8-1.723077-8.246154-6.153846-8.492308-11.2l-0.369231-5.784616c-3.323077 2.830769-7.138462 5.046154-11.323077 6.276924-23.753846 7.507692-55.630769 10.338462-94.892307 8.36923-4.430769-0.246154-8.492308-2.830769-10.584616-6.76923-20.923077-39.753846-55.261538-59.815385-102.030769-59.815385h-0.984615c-46.523077 0.246154-76.676923 19.692308-89.846154 57.846154-1.723077 5.046154-6.523077 8.492308-11.815385 8.492307l-232.738461 3.2h-0.123077c-5.415385 0-10.215385-3.323077-11.938462-8.492307-14.276923-40.492308-47.138462-61.046154-97.6-61.046154-50.338462 0-81.846154 21.292308-93.907692 63.384615-1.476923 5.415385-6.523077 9.107692-12.061539 9.23077l-109.538461 0.861538-54.153846 186.215385z" fill="#1C1B55" /><path d="M977.230769 698.722462c-7.876923 27.2-15.753846 44.184615-23.753846 51.2-8 7.015385-26.461538 12.923077-55.261538 17.96923H61.784615" fill="#D4F1FF" /><path d="M899.446154 781.184h-38.276923v-26.584615h35.938461c9.6-1.723077 18.092308-3.446154 25.23077-5.415385l6.892307 25.723077c-8.123077 2.215385-17.846154 4.307692-28.676923 6.153846l-1.107692 0.123077z m-60.553846 0h-65.353846v-26.584615h65.353846v26.584615z m-87.507693 0h-65.353846v-26.584615h65.353846v26.584615z m-87.507692 0h-65.353846v-26.584615h65.353846v26.584615z m-87.507692 0h-65.353846v-26.584615h65.353846v26.584615z m-87.507693 0h-65.353846v-26.584615h65.353846v26.584615z m-87.507692 0H336v-26.584615h65.353846v26.584615z m-87.507692 0h-65.353846v-26.584615H313.846154v26.584615z m-87.507692 0h-65.353847v-26.584615h65.353847v26.584615z m-87.507693 0H73.476923v-26.584615h65.353846v26.584615z m813.907693-14.892308l-12.184616-23.630769c2.338462-1.230769 3.569231-2.215385 4.307692-2.707692 2.707692-2.338462 10.092308-11.569231 19.692308-44.923077l25.6 7.384615c-8.738462 30.276923-17.6 48.615385-27.692308 57.6-2.830769 2.215385-5.907692 4.307692-9.723076 6.276923z" fill="#1C1B55" /><path d="M149.196308 308.923077h753.353846c1.846154 0 3.323077 1.476923 3.323077 3.323077v379.076923c0 1.846154-1.476923 3.323077-3.323077 3.323077h-32.615385c-11.323077-69.169231-50.092308-104.492308-116.553846-105.969231s-107.938462 33.846154-124.307692 105.969231h-205.538462c-19.076923-70.646154-59.076923-105.969231-119.876923-105.969231s-101.538462 35.323077-121.969231 105.969231h-32.492307c-1.846154 0-3.323077-1.476923-3.323077-3.323077v-379.076923c0-1.846154 1.476923-3.323077 3.323077-3.323077z" fill="#D4F1FF" /><path d="M902.550154 721.230769h-55.261539l-3.692307-22.276923c-9.230769-56.615385-37.292308-82.461538-90.953846-83.692308-26.830769-0.615385-47.507692 5.661538-63.384616 19.2-16.246154 13.907692-27.446154 35.569231-34.338461 66.092308l-4.676923 20.676923h-247.015385l-5.292308-19.692307c-20.923077-77.415385-63.753846-86.4-94.276923-86.4-48.615385 0-79.261538 27.569231-96.369231 86.76923l-5.538461 19.2h-52.553846c-16.492308 0-29.907692-13.415385-29.907693-29.907692V312.246154c0-16.492308 13.415385-29.907692 29.907693-29.907692h753.353846c16.492308 0 29.907692 13.415385 29.907692 29.907692v379.076923c0 16.492308-13.415385 29.907692-29.907692 29.907692z m-32.615385-26.584615h32.615385c1.846154 0 3.323077-1.476923 3.323077-3.323077v-379.076923c0-1.846154-1.476923-3.323077-3.323077-3.323077h-753.353846c-1.846154 0-3.323077 1.476923-3.323077 3.323077v379.076923c0 1.846154 1.476923 3.323077 3.323077 3.323077h32.615384c10.215385-35.446154 24.984615-61.292308 45.169231-79.015385 20.430769-17.969231 46.153846-27.076923 76.676923-27.076923 30.523077 0 56.123077 9.107692 76.184616 27.076923 19.815385 17.723077 34.092308 43.569231 43.692307 79.015385h205.538462c8.246154-36.307692 22.276923-62.523077 42.953846-80.369231 20.676923-17.846154 48.123077-26.461538 81.230769-25.723077 33.107692 0.738462 59.815385 10.092308 79.138462 27.815385 19.692308 17.846154 31.876923 43.446154 37.538461 78.276923z" fill="#1C1B55" /><path d="M243.677538 707.442462a57.846154 57.846154 0 1 0 115.692308 0 57.846154 57.846154 0 1 0-115.692308 0Z" fill="#FFF7A6" /><path d="M301.523692 791.873231c-46.523077 0-84.430769-37.907692-84.430769-84.430769s37.907692-84.430769 84.430769-84.43077 84.430769 37.907692 84.43077 84.43077-37.907692 84.430769-84.43077 84.430769z m0-142.276923c-31.876923 0-57.846154 25.969231-57.846154 57.846154s25.969231 57.846154 57.846154 57.846153 57.846154-25.969231 57.846154-57.846153-25.969231-57.846154-57.846154-57.846154z" fill="#1C1B55" /><path d="M255.492923 743.873231c10.707692 13.292308 27.2 21.784615 45.538462 21.784615 32.369231 0 58.584615-26.215385 58.584615-58.584615 0-18.461538-8.492308-34.830769-21.784615-45.538462 8.123077 10.092308 13.046154 22.892308 13.046153 36.923077 0 32.369231-26.215385 58.584615-58.584615 58.584616-13.907692-0.123077-26.707692-5.046154-36.8-13.169231z" fill="#80CFF5" /><path d="M691.896615 707.441231a58.461538 58.461538 0 1 0 116.923077 0 58.461538 58.461538 0 1 0-116.923077 0Z" fill="#FFF7A6" /><path d="M750.358154 792.487385c-46.892308 0-85.046154-38.153846-85.046154-85.046154s38.153846-85.046154 85.046154-85.046154c46.892308 0 85.046154 38.153846 85.046154 85.046154s-38.153846 85.046154-85.046154 85.046154z m0-143.507693c-32.246154 0-58.461538 26.215385-58.461539 58.461539s26.215385 58.461538 58.461539 58.461538 58.461538-26.215385 58.461538-58.461538-26.215385-58.461538-58.461538-58.461539z" fill="#1C1B55" /><path d="M766.235077 763.441231c16.369231-4.676923 30.646154-16.492308 37.784615-33.476923 12.676923-29.784615-1.230769-64.246154-31.138461-76.8-16.984615-7.138462-35.446154-5.784615-50.461539 2.215384 12.430769-3.569231 26.215385-3.076923 39.015385 2.461539 29.907692 12.553846 43.815385 46.892308 31.138461 76.676923-5.415385 12.923077-14.892308 22.769231-26.338461 28.923077z" fill="#80CFF5" /><path d="M164.211692 342.153846h-11.692307c-3.692308 0-6.646154 2.953846-6.646154 6.646154V550.153846h14.523077c12.184615 0 22.153846-9.969231 22.153846-22.153846V360.492308c0-10.092308-8.123077-18.338462-18.338462-18.338462z" fill="#FFFFFF" /><path d="M160.396308 576.738462h-41.107693V348.8c0-18.338462 14.892308-33.230769 33.23077-33.230769h11.692307c24.738462 0 44.923077 20.184615 44.923077 44.923077V528c0 26.830769-21.784615 48.738462-48.738461 48.738462z m-14.523077-26.584616h14.523077c12.184615 0 22.153846-9.969231 22.153846-22.153846V360.492308c0-10.092308-8.246154-18.338462-18.338462-18.338462h-11.692307c-3.692308 0-6.646154 2.953846-6.646154 6.646154V550.153846z" fill="#1C1B55" /><path d="M256.888615 355.938462h134.523077v137.353846h-134.523077z" fill="#FFFFFF" /><path d="M404.827077 520h-161.230769c-7.384615 0-13.292308-5.907692-13.292308-13.292308V342.646154c0-7.384615 5.907692-13.292308 13.292308-13.292308h161.107692c7.384615 0 13.292308 5.907692 13.292308 13.292308v163.938461c0.123077 7.384615-5.907692 13.415385-13.169231 13.415385z m-147.938462-26.584615h134.523077V355.938462h-134.523077v137.476923z" fill="#1C1B55" /><path d="M489.504 354.338462h137.230769v140.553846h-137.230769z" fill="#FFFFFF" /><path d="M639.904 521.6h-163.692308c-7.384615 0-13.292308-5.907692-13.292307-13.292308V341.046154c0-7.384615 5.907692-13.292308 13.292307-13.292308h163.815385c7.384615 0 13.292308 5.907692 13.292308 13.292308V508.307692c-0.123077 7.261538-6.030769 13.292308-13.415385 13.292308z m-150.4-26.584615h137.230769V354.338462h-137.230769v140.676923z" fill="#1C1B55" /><path d="M723.350154 354.707692h136.984615v139.938462h-136.984615z" fill="#FFFFFF" /><path d="M873.750154 521.230769h-163.692308c-7.384615 0-13.292308-5.907692-13.292308-13.292307V341.415385c0-7.384615 5.907692-13.292308 13.292308-13.292308h163.569231c7.384615 0 13.292308 5.907692 13.292308 13.292308v166.523077c0.123077 7.384615-5.907692 13.292308-13.169231 13.292307z m-150.4-26.584615h136.984615V354.707692h-136.984615v139.938462z" fill="#1C1B55" /><path d="M445.811692 678.769231c0.861538 3.076923 53.046154 8.246154 156.553846 15.261538h-179.2c-8.246154-30.523077-17.107692-51.938462-26.830769-64.246154s-23.261538-23.015385-40.738461-32.36923c49.230769 17.230769 79.261538 44.307692 90.215384 81.353846z" fill="#80CFF5" /><path d="M68.211692 424.738462h23.753846v63.384615h-23.753846z" fill="#FFF7A6" /><path d="M104.027077 512.369231h-47.876923c-6.646154 0-12.061538-5.415385-12.061539-12.061539v-87.630769c0-6.646154 5.415385-12.061538 12.061539-12.061538h47.876923c6.646154 0 12.061538 5.415385 12.061538 12.061538v87.507692c0 6.769231-5.415385 12.184615-12.061538 12.184616z m-35.815385-24.123077h23.753846v-63.507692h-23.753846v63.507692z" fill="#1C1B55" /><path d="M136.642462 578.461538c-2.338462 0-4.8-0.615385-7.015385-1.96923-21.415385-13.292308-35.323077-22.276923-42.584615-27.692308-10.953846-8-15.507692-23.630769-14.153847-47.876923 0.369231-7.384615 6.646154-12.923077 14.03077-12.553846 7.384615 0.369231 12.923077 6.769231 12.553846 14.030769-1.230769 20.923077 3.323077 24.861538 3.323077 24.861538 6.646154 4.8 20.307692 13.784615 40.861538 26.461539 6.276923 3.815385 8.123077 12.061538 4.307692 18.338461-2.584615 4.184615-6.892308 6.4-11.323076 6.4z" fill="#1C1B55" /><path d="M390.919385 355.446154l-23.753847 137.230769h23.753847zM625.011692 356.553846l-23.753846 137.230769h23.753846zM858.857846 356.553846l-23.753846 137.230769h23.753846z" fill="#D4F1FF" /><path d="M125.934769 607.507692l20.676923 9.6V644.923077l-20.676923 9.6z" fill="#FFF7A6" /><path d="M113.750154 685.661538c-2.338462 0-4.553846-0.615385-6.523077-1.96923-3.446154-2.215385-5.661538-6.153846-5.661539-10.215385V588.307692c0-4.184615 2.092308-8 5.661539-10.338461 3.569231-2.215385 7.876923-2.461538 11.692308-0.738462l45.046153 21.046154c4.307692 1.969231 7.015385 6.276923 7.015385 11.076923v43.323077c0 4.8-2.707692 9.107692-7.138461 11.076923l-45.046154 20.8c-1.6 0.738462-3.323077 1.107692-5.046154 1.107692z m12.184615-78.153846v47.015385l20.676923-9.476923v-27.815385l-20.676923-9.723077z" fill="#1C1B55" /><path d="M286.796308 406.153846c-2.092308-7.261538-1.107692-11.938462 2.953846-14.030769 5.907692-3.2 27.815385-14.276923 36.184615-3.2s18.215385 15.015385 11.569231 30.4-9.230769 19.692308-11.569231 19.692308c-1.6 0-2.338462 3.938462-2.338461 11.692307l6.153846 10.338462c11.692308 21.538462 16.861538 32.246154 15.384615 32.246154h-51.938461c-2.707692 0 0.738462-10.707692 10.338461-32.246154-2.707692-2.830769-2.707692-4.923077 0-6.276923 2.707692-1.353846 4.553846-2.707692 5.661539-4.061539-8.861538-0.369231-13.784615-1.353846-14.646154-2.953846-0.984615-1.6-1.353846-3.569231-1.353846-5.907692-1.107692 0-2.092308-0.861538-2.092308-2.092308 0-0.369231 0.123077-0.738462 0.246154-0.984615l3.2-5.661539c-5.169231 2.215385-7.753846 2.953846-7.753846 2.461539v-2.461539c-5.169231-1.353846-7.507692-2.707692-6.769231-4.061538s2.215385-3.446154 4.8-6.4v-9.6c0-1.723077 0.615385-4.061538 1.969231-6.892308z" fill="#D4F1FF" /><path d="M522.857846 407.384615c-2.092308-7.261538-1.107692-11.938462 2.953846-14.030769 5.907692-3.2 27.815385-14.276923 36.184616-3.2 3.569231 4.676923 10.461538 4.8 14.76923 17.230769 5.661538 16.492308 9.969231 48.615385 2.092308 57.723077-3.815385 4.430769-5.415385-2.461538-10.215384-5.046154-2.338462-1.230769-5.538462-1.6-6.523077-2.092307-3.076923-1.723077-1.723077-0.369231 3.815384 4.430769 4.061538 5.907692 6.892308 10.215385 8.369231 13.046154 5.907692 11.323077 8 19.2 6.892308 19.2h-50.461539c-1.476923 0-3.815385-5.169231-1.353846-11.815385 0.738462-2.092308 5.661538-5.538462 7.876923-9.846154 1.107692-2.092308 1.846154-5.538462 2.461539-10.584615-2.707692-2.830769-2.707692-4.923077 0-6.276923 2.707692-1.353846 4.553846-2.707692 5.661538-4.061539-8.861538-0.369231-13.784615-1.353846-14.646154-2.953846-0.984615-1.6-1.353846-3.569231-1.353846-5.907692-0.984615 0-1.846154-0.861538-1.846154-1.846154 0-0.369231 0.123077-0.738462 0.369231-0.984615l3.569231-5.292308c-2.830769 3.815385-4.553846 5.538462-5.292308 5.046154-0.738462-0.492308-1.723077-2.338462-3.076923-5.661539-3.938462-1.476923-5.661538-2.953846-4.923077-4.184615s1.6-3.446154 2.953846-6.276923v-9.6c0-1.723077 0.369231-4.184615 1.723077-7.015385z" fill="#80CFF5" /><path d="M758.919385 407.384615c-2.092308-7.261538-1.107692-11.938462 2.953846-14.030769 5.907692-3.2 27.815385-14.153846 36.307692-3.2s18.215385 15.015385 11.569231 30.4-9.230769 19.692308-11.569231 19.692308c-1.6 0-2.338462 3.938462-2.338461 11.692308l6.153846 10.338461c11.692308 21.538462 16.861538 32.246154 15.384615 32.246154h-51.938461c-2.707692 0 0.738462-10.707692 10.338461-32.246154-2.707692-2.830769-2.707692-4.923077 0-6.276923 2.707692-1.353846 4.553846-2.707692 5.661539-4.061538-8.861538-0.369231-13.784615-1.353846-14.646154-2.953847-0.984615-1.6-1.353846-3.569231-1.353846-5.907692-1.107692 0-2.092308-0.861538-2.092308-2.092308 0-0.369231 0.123077-0.738462 0.246154-0.984615l3.2-5.661538c-5.169231 2.215385-7.753846 2.953846-7.753846 2.461538v-2.461538c-5.169231-1.353846-7.507692-2.707692-6.769231-4.061539s2.215385-3.446154 4.8-6.4v-9.6c0-1.723077 0.492308-4.061538 1.846154-6.892308z" fill="#D4F1FF" /><path d="M774.892308 241.107692H581.538462c-8.123077 0-14.769231-6.646154-14.769231-14.76923s6.646154-14.769231 14.769231-14.769231h193.353846c8.123077 0 14.769231 6.646154 14.76923 14.769231s-6.646154 14.769231-14.76923 14.76923z m-239.507693 0h-49.107692c-8.123077 0-14.769231-6.646154-14.769231-14.76923s6.646154-14.769231 14.769231-14.769231H535.384615c8.123077 0 14.769231 6.646154 14.769231 14.769231s-6.523077 14.769231-14.769231 14.76923z m-102.646153 0H148.061538c-8.123077 0-14.769231-6.646154-14.76923-14.76923s6.646154-14.769231 14.76923-14.769231h284.676924c8.123077 0 14.769231 6.646154 14.76923 14.769231s-6.646154 14.769231-14.76923 14.76923z" fill="#1C1B55" /><path d="M353.353846 169.353846h147.323077m46.646154 0H880" fill="#D4F1FF" /><path d="M880 184.123077H547.323077c-8.123077 0-14.769231-6.646154-14.769231-14.769231s6.646154-14.769231 14.769231-14.769231H880c8.123077 0 14.769231 6.646154 14.769231 14.769231s-6.646154 14.769231-14.769231 14.769231z m-379.323077 0H353.353846c-8.123077 0-14.769231-6.646154-14.769231-14.769231s6.646154-14.769231 14.769231-14.769231h147.323077c8.123077 0 14.769231 6.646154 14.769231 14.769231s-6.646154 14.769231-14.769231 14.769231z" fill="#1C1B55" /></svg>