<?xml version="1.0" standalone="no"?><!DOCTYPE svg PUBLIC "-//W3C//DTD SVG 1.1//EN" "http://www.w3.org/Graphics/SVG/1.1/DTD/svg11.dtd"><svg class="icon" width="200px" height="200.00px" viewBox="0 0 1024 1024" version="1.1" xmlns="http://www.w3.org/2000/svg"><path d="M238.118648 269.789308h-100.127102v-69.263551c0-8.613084 7.057944-15.671028 15.671028-15.671028h68.785046c8.613084 0 15.671028 7.057944 15.671028 15.671028v69.263551z m-71.416822-28.71028h42.706542v-27.514019h-42.706542v27.514019z" fill="#1C1B55" /><path d="M157.251359 201.602393h62.205607v52.635514h-62.205607z" fill="#FFFCFC" /><path d="M937.931733 683.842991H116.817714c-9.330841 0-16.986916-7.656075-16.986916-16.986916v-289.016823h855.08785v289.016823c0 9.330841-7.656075 16.986916-16.986915 16.986916z m-809.390655-28.710281h797.66729v-248.583177H128.541078v248.583177z" fill="#1C1B55" /><path d="M130.933602 405.353271h797.906542v250.018692h-797.906542z" fill="#80CFF5" /><path d="M127.584069 405.592523h799.102804v46.654206h-799.102804z" fill="#D4F1FF" /><path d="M128.541078 377.753121V267.218542c0-1.435514 1.196262-2.631776 2.631776-2.631776h341.652337V213.745645c0-1.435514 1.196262-2.631776 2.631775-2.631776h448.239253c1.435514 0 2.631776 1.196262 2.631775 2.631776v164.007476H128.541078z" fill="#FFF7A6" /><path d="M954.918648 406.463402H99.830798V267.218542c0-17.226168 13.996262-31.342056 31.342056-31.342056h312.942056V213.745645c0-17.226168 13.996262-31.342056 31.342056-31.342056h448.239253c17.226168 0 31.342056 13.996262 31.342056 31.342056v192.717757zM128.541078 377.753121h797.66729V213.745645c0-1.435514-1.196262-2.631776-2.631776-2.631776H475.33734c-1.435514 0-2.631776 1.196262-2.631776 2.631776v50.960748H131.172854C129.73734 264.706393 128.541078 265.902654 128.541078 267.338168v110.414953z" fill="#1C1B55" /><path d="M300.802761 378.112h625.884112V212.190505L573.071919 208.960598h-97.256074c-1.315888 0-2.392523 1.076636-2.392524 2.392523v52.515888H294.821452v114.362617h5.981309z" fill="#FFFFFF" /><path d="M358.56306 356.198879v-40.074767c0-1.435514-1.196262-2.631776-2.631776-2.631776h-7.656075c-1.435514 0-2.631776 1.196262-2.631775 2.631776v39.835514c-9.809346 2.392523-17.106542 10.885981-17.106543 20.814953 0 11.842991 10.28785 21.53271 23.087851 21.532711s23.08785-9.68972 23.08785-21.532711c0.119626-9.68972-6.699065-17.824299-16.149532-20.5757z" fill="#1C1B55" /><path d="M767.105564 267.994916h80.747664v57.540187h-80.747664z" fill="#80CFF5" /><path d="M876.563508 354.245383h-138.168224v-114.960747h138.168224v114.960747z m-109.457944-28.71028h80.747664v-57.540187h-80.747664v57.540187z" fill="#1C1B55" /><path d="M769.019583 322.424822l18.302804-23.08785h37.44299l15.671028 22.848598zM769.019583 269.908935l18.302804 23.207476h37.44299l15.671028-22.968224" fill="#FFFFFF" /><path d="M545.207396 255.880374h101.203738v17.46542h-101.203738z" fill="#FFFFFF" /><path d="M675.121415 302.056075h-158.624299V227.170093h158.624299v74.885982z m-129.914019-28.710281h101.203738V255.880374h-101.203738v17.46542z" fill="#1C1B55" /><path d="M622.589976 490.877607m-157.308412 0a157.308411 157.308411 0 1 0 314.616823 0 157.308411 157.308411 0 1 0-314.616823 0Z" fill="#D4F1FF" /><path d="M622.589976 676.896299c-102.519626 0-186.018692-83.499065-186.018692-186.018692s83.499065-186.018692 186.018692-186.018691 186.018692 83.499065 186.018691 186.018691-83.499065 186.018692-186.018691 186.018692z m0-343.327103c-86.728972 0-157.308411 70.579439-157.308412 157.308411s70.579439 157.308411 157.308412 157.308412 157.308411-70.579439 157.308411-157.308412-70.579439-157.308411-157.308411-157.308411z" fill="#1C1B55" /><path d="M622.589976 639.572935c-10.527103 0-21.054206-1.076636-31.22243-3.349533l5.981308-28.11215c11.125234 2.392523 22.848598 3.11028 34.213084 2.392524l2.153271 28.590654c-3.708411 0.358879-7.416822 0.478505-11.125233 0.478505z m58.138317-11.723365l-11.244859-26.437383c10.527103-4.426168 20.336449-10.407477 29.308411-17.704673l18.183177 22.130841c-11.005607 8.971963-23.207477 16.388785-36.246729 22.011215z m-134.579439-9.330841c-12.201869-7.297196-23.207477-16.269159-32.897196-26.796262l21.054205-19.499065c7.775701 8.493458 16.747664 15.671028 26.55701 21.652336l-14.714019 24.642991z m202.766355-49.166355l-24.403738-15.192524c6.100935-9.809346 10.646729-20.336449 13.757009-31.342056l27.633645 7.656075c-3.708411 13.757009-9.450467 26.796262-16.986916 38.878505z m-262.220561-18.063552c-5.742056-13.039252-9.68972-26.676636-11.484112-40.912149l28.471028-3.708411c1.55514 11.364486 4.665421 22.48972 9.330841 32.897196l-26.317757 11.723364z m255.760748-67.349532c-0.598131-11.484112-2.990654-22.728972-6.818691-33.495327l27.035514-9.68972c4.785047 13.398131 7.656075 27.394393 8.373831 41.629907l-28.590654 1.55514z m-237.57757-16.388785l-28.11215-5.502804c2.751402-13.996262 7.536449-27.394393 14.115888-40.074766l25.480374 13.278504c-5.502804 10.168224-9.330841 21.054206-11.484112 32.299066z m211.738318-51.319626c-7.17757-8.971963-15.551402-16.86729-24.882243-23.566356l16.508411-23.446729c11.603738 8.134579 22.011215 17.943925 30.863551 29.069159l-22.489719 17.943926z m-176.927103-12.20187l-19.738318-20.695327c10.28785-9.809346 21.891589-18.063551 34.571963-24.64299l13.158878 25.480373c-10.28785 5.263551-19.618692 11.962617-27.992523 19.857944z m116.75514-28.351402c-11.005607-3.229907-22.370093-4.904673-33.854205-4.904672-5.981308 0-11.962617 0.478505-17.8243 1.315887l-4.186915-28.351401c7.17757-1.076636 14.594393-1.674766 22.011215-1.674767 14.235514 0 28.351402 2.033645 41.988785 5.981309l-8.13458 27.633644z" fill="#1C1B55" /><path d="M622.616293 603.591776c-62.085981 0-112.68785-50.482243-112.68785-112.687851 0-62.085981 50.482243-112.68785 112.68785-112.68785s112.68785 50.482243 112.687851 112.68785c0 62.085981-50.601869 112.68785-112.687851 112.687851z m0-196.665421c-46.295327 0-83.97757 37.682243-83.97757 83.97757s37.682243 83.97757 83.97757 83.97757 83.97757-37.682243 83.97757-83.97757-37.682243-83.97757-83.97757-83.97757z" fill="#1C1B55" /><path d="M622.609116 490.896748m-40.074767 0a40.074766 40.074766 0 1 0 80.149533 0 40.074766 40.074766 0 1 0-80.149533 0Z" fill="#80CFF5" /><path d="M622.609116 559.681794c-37.921495 0-68.785047-30.863551-68.785047-68.785046s30.863551-68.785047 68.785047-68.785047 68.785047 30.863551 68.785046 68.785047-30.863551 68.785047-68.785046 68.785046z m0-108.859813c-22.130841 0-40.074766 17.943925-40.074767 40.074767s17.943925 40.074766 40.074767 40.074766 40.074766-17.943925 40.074766-40.074766-17.943925-40.074766-40.074766-40.074767z" fill="#1C1B55" /><path d="M268.9822 258.783701h28.71028v410.676635h-28.71028zM400.379583 257.196262h-113.64486c-9.928972 0-17.943925-8.014953-17.943925-17.943926V200.971963c0-9.928972 8.014953-17.943925 17.943925-17.943926h113.64486c9.928972 0 17.943925 8.014953 17.943925 17.943926v38.280373c0 9.928972-8.014953 17.943925-17.943925 17.943926z m-102.878505-28.710281h92.11215V211.738318h-92.11215v16.747663z" fill="#1C1B55" /><path d="M289.127247 202.168224h113.644859v34.691589h-113.644859z" fill="#FFFFFF" /><path d="M349.658088 201.330841h28.71028v34.811215h-28.71028zM308.985191 201.330841h28.71028v34.811215h-28.71028z" fill="#1C1B55" /><path d="M230.869303 684.142056c-9.809346 59.573832-23.327103 100.246729-40.553271 122.018692-17.226168 21.771963-37.084112 33.136449-59.573832 34.093458L758.659957 855.327103c31.940187-7.536449 54.429907-21.891589 67.469159-42.826168 13.158879-21.054206 13.158879-63.760748 0-128.358879H230.869303z" fill="#FFFFFF" /><path d="M760.095471 884.037383h-0.358879L130.024443 868.84486c-7.775701-0.239252-13.996262-6.459813-13.996262-14.235514l-0.239252-28.710281c-0.119626-7.775701 5.981308-14.115888 13.757009-14.474766 13.757009-0.598131 26.317757-8.134579 38.160748-23.207477 9.68972-12.201869 23.566355-41.031776 34.691589-108.740186l2.033644-12.082243c1.196262-6.938318 7.17757-12.082243 14.115888-12.082243h619.185047c6.818692 0 12.680374 4.785047 14.115888 11.484112l2.392523 11.484112c14.953271 73.68972 13.757009 121.181308-3.828037 149.293458-17.226168 27.514019-45.816822 46.295327-85.173832 55.626168l-1.794392 0.478505c-1.076636 0.239252-2.272897 0.358879-3.349533 0.358878zM144.618835 840.493458L758.659957 855.327103c31.700935-7.536449 54.429907-21.891589 67.469159-42.826168 13.039252-20.934579 13.039252-64.119626 0-128.358879H230.869303c-9.68972 59.214953-23.446729 100.246729-40.553271 122.018692-13.517757 17.106542-28.829907 27.753271-45.697197 32.059813v2.272897z" fill="#1C1B55" /><path d="M261.972106 776.613084h235.783178m53.951402 0h70.818691" fill="#FFFFFF" /><path d="M622.525377 790.968224h-70.818691c-7.895327 0-14.35514-6.459813-14.35514-14.35514s6.459813-14.35514 14.35514-14.35514h70.818691c7.895327 0 14.35514 6.459813 14.355141 14.35514s-6.459813 14.35514-14.355141 14.35514z m-124.770093 0H261.972106c-7.895327 0-14.35514-6.459813-14.35514-14.35514s6.459813-14.35514 14.35514-14.35514h235.783178c7.895327 0 14.35514 6.459813 14.35514 14.35514s-6.340187 14.35514-14.35514 14.35514z" fill="#D4F1FF" /><path d="M753.276779 756.037383m-46.654205 0a46.654206 46.654206 0 1 0 93.308411 0 46.654206 46.654206 0 1 0-93.308411 0Z" fill="#D4F1FF" /><path d="M309.822574 728.762617h235.783177m53.951402 0h70.818692" fill="#FFFFFF" /><path d="M670.375845 743.117757h-70.818692c-7.895327 0-14.35514-6.459813-14.35514-14.35514s6.459813-14.35514 14.35514-14.35514h70.818692c7.895327 0 14.35514 6.459813 14.35514 14.35514s-6.459813 14.35514-14.35514 14.35514z m-124.770094 0H309.822574c-7.895327 0-14.35514-6.459813-14.35514-14.35514s6.459813-14.35514 14.35514-14.35514h235.783177c7.895327 0 14.35514 6.459813 14.35514 14.35514s-6.340187 14.35514-14.35514 14.35514z" fill="#D4F1FF" /></svg>