<?xml version="1.0" standalone="no"?><!DOCTYPE svg PUBLIC "-//W3C//DTD SVG 1.1//EN" "http://www.w3.org/Graphics/SVG/1.1/DTD/svg11.dtd"><svg class="icon" width="200px" height="200.00px" viewBox="0 0 1024 1024" version="1.1" xmlns="http://www.w3.org/2000/svg"><path d="M123.076923 870.153846h752" fill="#FFFFFF" /><path d="M116.553846 857.107692h765.046154v26.092308H116.553846zM579.2 594.953846s-72.246154 0-48.123077-72c12.061538-35.938462-12.061538-11.938462-24.123077 11.938462s-24.123077 96 60.184616 83.938461 12.061538-23.876923 12.061538-23.876923" fill="#1C1B55" /><path d="M531.692308 632.246154c0-7.876923 0.738462-12.061538 2.092307-13.538462 10.707692-35.446154 66.215385-34.830769 130.092308-34.707692 35.815385-0.246154 59.692308-49.353846 59.692308-60.184615 0-60.184615 58.092308-74.461538 89.969231-36.061539 29.907692 36.061538 89.846154-0.492308 89.846153 36.061539 0 60.184615-40.246154 96.369231-89.96923 96.36923-7.753846 0-20.8-1.846154-36.061539-4.553846-11.323077 19.815385-16.615385 46.769231-17.846154 52.8-0.246154 1.476923-0.615385 2.830769-0.861538 4.307693-5.169231 55.630769-32.123077 164.307692-47.015385 164.307692-12.8 0-20.184615-29.907692-22.769231-64.984616-10.584615 3.076923-22.892308 4.8-37.16923 4.8-13.292308 0-25.6-2.953846-36.923077-7.876923-2.461538 36.430769-9.846154 68.184615-23.015385 68.184616-15.507692 0-54.523077-138.461538-59.446154-194.338462-0.492308-4.307692-0.615385-7.630769-0.615384-10.584615z" fill="#D4F1FF" /><path d="M711.507692 861.538462c-10.953846 0-20.923077-5.292308-28.184615-15.015385-4.184615-5.538462-7.630769-12.553846-10.461539-21.538462-2.215385-6.892308-4.061538-15.138462-5.538461-24.36923-9.969231 0.861538-20.8 0.984615-31.384615-0.492308-1.476923 8.861538-3.2 16.738462-5.169231 23.507692-2.830769 9.230769-6.153846 16.492308-10.338462 22.276923-7.384615 10.092308-17.6 15.630769-28.676923 15.63077-7.261538 0-13.907692-2.707692-19.692308-7.876924-2.707692-2.461538-5.169231-5.415385-7.753846-9.230769-3.323077-5.046154-6.769231-11.692308-10.338461-20.307692-6.030769-14.153846-12.8-33.6-19.446154-56.369231-13.538462-45.661538-24.246154-95.015385-26.707692-122.953846-0.369231-4.8-0.615385-8.861538-0.615385-12.430769 0-9.476923 0.738462-17.230769 4.184615-24 8.492308-23.507692 28.923077-38.030769 62.276923-44.307693 21.415385-4.061538 40.861538-4.676923 88.369231-4.553846h1.969231c7.261538-0.123077 15.876923-6.153846 23.753846-16.492307 3.569231-4.676923 6.892308-10.215385 9.230769-15.384616 0.861538-1.969231 1.6-3.815385 2.092308-5.169231v-0.123076c0.492308-37.046154 19.446154-66.461538 49.723077-76.676924 29.292308-9.969231 62.153846 0.492308 83.815385 26.461539 3.076923 3.692308 7.630769 7.261538 20.061538 8.492308 4.184615 0.369231 7.876923 0.492308 16.984615 0.492307 15.507692 0 23.261538 0.246154 32.615385 3.692308 16.246154 6.153846 25.723077 20.307692 25.723077 39.015385 0 34.215385-11.569231 65.107692-32.492308 87.015384-20.8 21.907692-49.969231 33.969231-82.092307 33.969231-5.538462 0-12.553846-0.615385-21.538462-1.846154-1.230769 3.446154-2.461538 7.138462-3.692308 11.076923-1.846154 6.4-3.2 11.938462-4.676923 19.076923-0.123077 0.861538-0.369231 1.6-0.615384 2.953846v0.246154c-2.830769 28.676923-10.830769 70.030769-20.553846 105.723077-5.169231 19.2-10.338462 34.953846-15.384616 46.646154-3.2 7.384615-6.153846 13.169231-9.353846 17.6-2.461538 3.815385-10.584615 15.261538-26.092308 15.261539z m-23.015384-88.861539l1.476923 12.8c1.476923 12.923077 3.569231 23.630769 6.276923 32 1.969231 6.153846 4.184615 10.830769 6.646154 14.153846 3.938462 5.169231 7.507692 5.169231 8.615384 5.169231 1.107692 0 2.707692 0 6.03077-4.8 2.092308-2.953846 4.430769-7.384615 6.76923-13.046154 4.430769-10.461538 9.353846-25.6 14.276923-43.446154 9.353846-34.707692 17.230769-74.830769 19.815385-102.276923l0.123077-0.738461 0.369231-1.6c0.246154-1.230769 0.369231-1.846154 0.492307-2.584616 1.6-7.876923 3.076923-14.030769 5.169231-21.16923 2.461538-8.615385 5.292308-16.246154 8.369231-23.015385l3.938461-8.615385 9.353847 1.6c12.184615 1.969231 21.292308 3.076923 27.2 3.076923 53.046154 0 89.969231-39.630769 89.96923-96.36923 0-11.076923-5.661538-14.4-9.846153-16-5.046154-1.846154-9.353846-2.215385-24-2.215385-8.984615 0-13.661538 0-19.446154-0.615385-16.492308-1.6-28.184615-7.138462-36.676923-17.353846-15.015385-17.969231-37.292308-25.353846-56.861539-18.830769-20.676923 7.015385-32.984615 27.569231-32.984615 55.015385h-11.815385l11.569231 2.338461v0.123077c-0.246154 0.984615-0.492308 2.092308-0.861539 3.2-0.738462 2.461538-1.846154 5.292308-3.2 8.246154-3.2 6.892308-7.384615 13.907692-12.061538 20.061538-12.923077 16.984615-27.938462 25.969231-43.2 26.092308h-2.215385c-45.661538-0.123077-64.246154 0.369231-83.692307 4.061539-32.492308 6.153846-40.615385 19.569231-43.938462 29.16923l-0.369231 1.107693-0.615384 0.984615c-1.353846 2.338462-1.6 8.123077-1.6 12.8 0 2.953846 0.123077 6.276923 0.492307 10.338462 2.338462 26.461538 12.676923 73.969231 25.723077 118.153846 6.4 21.907692 12.923077 40.369231 18.584616 53.661538 3.076923 7.138462 5.907692 12.676923 8.369231 16.492308 1.353846 1.969231 2.461538 3.446154 3.56923 4.430769 1.723077 1.6 2.707692 1.6 3.2 1.6 1.230769 0 4.8 0 8.861539-5.538461 2.461538-3.446154 4.8-8.369231 6.769231-14.892308 2.584615-8.492308 4.676923-19.446154 6.153846-32.246154l1.6-14.153846 13.784615 3.692308c7.507692 1.969231 15.138462 2.953846 22.892308 2.953846 8.615385 0 16.738462-0.615385 24.246154-1.846154l12.676923-1.969231z" fill="#1C1B55" /><path d="M878.769231 531.076923c0 9.846154 14.030769 17.846154 23.876923 17.846154s17.969231-13.907692 17.969231-23.753846-8-11.938462-17.969231-11.938462c-23.876923 0-23.876923 8-23.876923 17.846154M708.923077 548.923077c0 36.307692 16.492308 41.846154 36.923077 41.846154s36.923077-5.538462 36.923077-41.846154-4.184615-83.692308-24.615385-83.692308-49.230769 47.384615-49.230769 83.692308M795.076923 512.615385c0 6.4 5.292308 11.692308 11.692308 11.692307s11.692308-5.292308 11.692307-11.692307-5.292308-11.692308-11.692307-11.692308-11.692308 5.292308-11.692308 11.692308M552.615385 639.384615c0 16.615385 16.492308 30.153846 36.923077 30.153847s36.923077-13.538462 36.923076-30.153847-16.492308-30.153846-36.923076-30.153846-36.923077 13.538462-36.923077 30.153846M637.538462 627.076923c0 9.846154 8 17.846154 17.846153 17.846154s17.846154-8 17.846154-17.846154-8-17.846154-17.846154-17.846154-17.846154 8-17.846153 17.846154M615.384615 687.384615c0 9.846154 8 17.846154 17.846154 17.846154s17.846154-8 17.846154-17.846154-8-17.846154-17.846154-17.846153-17.846154 8-17.846154 17.846153" fill="#1C1B55" /><path d="M765.415385 641.6l-31.63077-13.046154-20.553846 139.076923-13.538461-25.723077c-22.276923 6.153846-38.4 9.230769-48.123077 9.23077s-27.446154-4.923077-53.169231-14.892308L579.692308 820.923077c4.307692 8.861538 7.507692 13.907692 9.6 15.015385 3.076923 1.723077 12.923077 3.323077 20.430769-29.907693 1.353846-5.784615 3.076923-18.215385 5.292308-37.292307 11.815385 4.923077 22.769231 7.507692 32.861538 7.753846 10.092308 0.123077 23.261538-0.738462 39.384615-2.83077 5.046154 42.461538 13.046154 63.753846 24.246154 63.753847 8.861538 0 19.938462-32.123077 32.861539-86.153847 4.676923-19.076923 11.692308-55.630769 21.046154-109.661538z" fill="#80CFF5" /><path d="M766.030769 644.430769c-18.707692-7.753846-35.446154-16.123077-50.092307-24.861538-16.123077-9.723077-28.8-24.123077-37.661539-43.076923l21.169231-9.969231c7.015385 14.892308 16.369231 25.6 28.553846 32.984615 13.538462 8.123077 29.415385 16 47.015385 23.384616l-8.984616 21.538461z" fill="#1C1B55" /><path d="M235.2 788.061538h-24.615385V556.307692c0-18.092308-6.646154-22.153846-50.584615-22.4-17.476923-0.123077-36.676923-7.384615-30.4 13.046154 2.953846 9.476923 13.046154 28.923077 30.4 58.338462v231.753846h75.2c13.538462 0 34.830769-9.107692 33.723077-32.369231-1.230769-23.138462-20.184615-16.615385-33.723077-16.615385z" fill="#80CFF5" /><path d="M235.2 866.584615H130.461538V613.292308c-16.615385-28.553846-25.6-46.4-29.046153-57.6-2.830769-9.230769-3.323077-17.476923-1.353847-25.107693 2.830769-11.076923 10.584615-19.938462 21.292308-24.36923 5.538462-2.215385 11.569231-3.2 18.830769-3.2 3.569231 0 5.907692 0.246154 11.815385 0.738461 3.2 0.246154 4.676923 0.369231 6.276923 0.492308h1.969231c25.230769 0.123077 41.230769 1.353846 54.153846 7.261538 17.476923 8.123077 25.846154 22.769231 25.846154 44.676923V758.153846h0.369231c1.107692-0.123077 1.723077-0.123077 2.338461-0.246154 11.692308-0.861538 21.046154-0.369231 31.138462 4.553846 14.646154 7.261538 23.261538 21.784615 24.246154 40.615385 0.984615 20.307692-7.138462 38.030769-23.015385 49.969231-11.323077 8.738462-25.969231 13.538462-40.123077 13.538461z m-75.2-29.538461h75.2c7.876923 0 16.246154-2.830769 22.4-7.507692 7.876923-6.030769 11.815385-14.523077 11.323077-24.861539-0.615385-12.061538-6.153846-14.769231-7.876923-15.630769-3.323077-1.6-6.523077-2.338462-15.753846-1.6-0.615385 0-1.230769 0.123077-2.215385 0.123077-3.938462 0.369231-5.661538 0.492308-7.753846 0.492307h-24.615385V556.307692c0-12.8-3.938462-15.630769-8.861538-17.846154-6.892308-3.2-18.215385-4.430769-41.723077-4.553846-0.984615 0-2.092308 0-3.2-0.123077-2.338462-0.123077-4.430769-0.246154-7.507692-0.615384-5.907692-0.492308-7.138462-0.615385-9.476923-0.615385-3.323077 0-5.538462 0.246154-7.261539 0.984616-2.092308 0.861538-3.323077 2.215385-3.815385 4.307692-0.369231 1.476923-0.615385 3.938462 0.984616 9.230769 2.830769 8.984615 12.307692 27.569231 28.307692 54.892308l1.969231 3.446154v231.630769z" fill="#1C1B55" /><path d="M145.353846 278.892308c-27.569231 31.384615-41.476923 67.815385-41.6 109.292307s7.507692 85.169231 23.015385 131.076923h77.046154V364.923077l75.323077 66.953846v-38.276923c-16.615385-20.923077-28.184615-37.661538-34.83077-49.969231-6.646154-12.307692-13.907692-30.646154-21.784615-55.138461l-77.169231-9.6z" fill="#FFFFFF" /><path d="M217.107692 545.846154H117.292308c-5.661538 0-10.707692-3.692308-12.553846-8.984616l-3.076924-8.984615c-16.369231-48.492308-24.615385-95.384615-24.36923-139.569231 0.246154-47.876923 16.492308-90.461538 48.246154-126.76923l4.676923-5.292308c2.953846-3.323077 7.261538-4.923077 11.56923-4.430769l92.43077 11.56923c5.169231 0.615385 9.476923 4.184615 10.953846 9.107693l2.584615 8c7.384615 22.769231 14.030769 39.753846 19.938462 50.584615 5.907692 10.830769 16.738462 26.338462 32.36923 46.030769l2.83077 3.569231c1.846154 2.338462 2.830769 5.292308 2.830769 8.246154v72.492308c0 5.292308-3.076923 9.969231-7.876923 12.184615-4.8 2.092308-10.338462 1.230769-14.276923-2.215385l-53.169231-47.261538v108.430769c0 7.261538-5.907692 13.292308-13.292308 13.292308zM126.769231 519.261538h77.046154V394.461538c0-5.292308 3.076923-9.969231 7.876923-12.184615 4.8-2.092308 10.338462-1.230769 14.276923 2.215385l53.169231 47.261538v-38.276923c-16.492308-20.923077-28.307692-37.661538-34.83077-49.969231s-13.907692-30.769231-21.784615-55.138461l-77.046154-9.6c-27.569231 31.384615-41.6 68.184615-41.723077 109.415384-0.123077 41.353846 7.630769 85.415385 23.015385 131.076923z" fill="#1C1B55" /><path d="M344.903385 465.869538l6.455384-20.678153 334.256 104.345846-6.455384 20.678154z" fill="#1C1B55" /><path d="M129.230769 545.846154c3.569231 9.230769 6.523077 16.246154 8.861539 20.8 2.215385 4.676923 9.6 17.6 22.030769 38.769231l1.230769 231.507692h25.353846V598.276923l-28.676923-52.553846H129.230769zM184.861538 518.4V327.384615l94.4 83.2V434.461538l-74.830769-68.553846v152.492308z" fill="#D4F1FF" /><path d="M197.538462 187.692308m-35.076924 0a35.076923 35.076923 0 1 0 70.153847 0 35.076923 35.076923 0 1 0-70.153847 0Z" fill="#FFFFFF" /><path d="M197.538462 249.353846c-33.969231 0-61.661538-27.692308-61.661539-61.661538s27.692308-61.661538 61.661539-61.661539 61.661538 27.692308 61.661538 61.661539-27.692308 61.661538-61.661538 61.661538z m0-96.738461c-19.323077 0-35.076923 15.753846-35.076924 35.076923s15.753846 35.076923 35.076924 35.076923 35.076923-15.753846 35.076923-35.076923-15.753846-35.076923-35.076923-35.076923z" fill="#1C1B55" /><path d="MNaN NaNmNaN NaNaNaN NaN NaN 1 0 NaN NaN NaN NaN NaN 1 0 NaN NaNZ" fill="#FFFFFF" /><path d="M316.923077 480.738462c-22.523077 0-40.738462-18.215385-40.738462-40.738462s18.215385-40.738462 40.738462-40.738462 40.738462 18.215385 40.738461 40.738462-18.215385 40.738462-40.738461 40.738462z m0-52.43077c-6.4 0-11.692308 5.292308-11.692308 11.692308s5.292308 11.692308 11.692308 11.692308 11.692308-5.292308 11.692308-11.692308-5.292308-11.692308-11.692308-11.692308z" fill="#1C1B55" /><path d="M858.215385 579.076923c-17.6-13.292308-29.292308-14.769231-34.953847-4.676923-5.661538 10.092308 0.615385 16.492308 18.584616 19.323077-10.830769 11.938462-10.830769 21.907692 0 29.784615 10.830769 7.876923 19.446154 0.492308 25.6-21.907692l46.646154-5.907692c12.923077 17.6 23.138462 21.538462 30.646154 11.815384 7.507692-9.6 4.184615-17.107692-10.092308-22.4 10.584615-12.553846 11.323077-21.292308 2.215384-26.215384s-16.738462-0.369231-22.892307 13.415384l-55.753846 6.769231z" fill="#FFF7A6" /><path d="M849.846154 647.261538c-6.769231 0-13.784615-2.338462-20.307692-7.015384-12.553846-9.107692-18.461538-21.784615-16.492308-35.076923-1.6-1.230769-3.2-2.461538-4.553846-3.938462-9.723077-9.969231-11.076923-23.876923-3.692308-37.169231 7.015385-12.553846 19.692308-18.830769 33.969231-16.984615 7.630769 0.984615 15.753846 4.307692 24.615384 10.092308l37.292308-4.553846c3.692308-5.415385 7.876923-9.476923 12.8-12.307693 10.092308-5.907692 22.153846-5.907692 33.107692-0.123077 11.815385 6.4 18.338462 17.723077 17.23077 30.4-0.246154 2.707692-0.738462 5.415385-1.6 8.123077 3.938462 4.676923 6.276923 9.969231 7.015384 15.63077 0.738462 6.030769 0 15.261538-8.123077 25.723076-9.353846 12.061538-23.630769 16.246154-37.292307 10.953847-6.4-2.461538-12.430769-6.892308-18.584616-13.415385l-22.276923 2.830769c-3.569231 8.369231-7.753846 14.646154-12.923077 19.076923-6.030769 5.292308-12.923077 7.753846-20.184615 7.753846z m-15.876923-79.507692c-4.676923 0-8.369231 2.215385-10.707693 6.523077-4.184615 7.630769-0.738462 11.2 0.369231 12.430769 1.353846 1.476923 3.2 2.584615 5.784616 3.692308 5.292308 2.215385 7.753846 8.246154 5.661538 13.538462-1.969231 4.8-3.323077 12.061538 6.892308 19.323076 5.415385 3.938462 10.338462 4.061538 14.523077 0.369231 3.446154-2.953846 6.523077-8.369231 9.107692-16.123077 1.230769-3.815385 4.676923-6.523077 8.615385-7.015384l33.96923-4.307693c3.569231-0.492308 7.138462 0.984615 9.353847 3.692308 5.046154 6.153846 9.723077 10.092308 13.907692 11.692308 5.046154 1.969231 9.6 0.492308 13.292308-4.307693 2.092308-2.584615 4.430769-6.523077 3.938461-10.215384-0.369231-2.584615-2.092308-5.046154-5.046154-7.384616-4.061538-3.076923-5.292308-8.738462-2.830769-13.292307 1.476923-2.707692 2.215385-5.169231 2.461538-7.384616 0.369231-4.307692-1.723077-7.753846-6.276923-10.215384-4.553846-2.461538-8.738462-2.584615-12.553846-0.369231-2.953846 1.723077-5.538462 4.676923-8 9.107692-1.6 2.953846-4.553846 4.923077-7.876923 5.292308l-46.153846 5.538462c-2.584615 0.246154-5.169231-0.369231-7.261538-1.846154-7.384615-5.169231-13.661538-8.123077-18.83077-8.738462-0.861538 0.123077-1.6 0-2.338461 0z" fill="#1C1B55" /></svg>