<?xml version="1.0" standalone="no"?><!DOCTYPE svg PUBLIC "-//W3C//DTD SVG 1.1//EN" "http://www.w3.org/Graphics/SVG/1.1/DTD/svg11.dtd"><svg class="icon" width="200px" height="200.00px" viewBox="0 0 1024 1024" version="1.1" xmlns="http://www.w3.org/2000/svg"><path d="M101.784615 337.476923h822.892308c1.846154 0 3.323077 1.476923 3.323077 3.323077v517.415385c0 1.846154-1.476923 3.323077-3.323077 3.323077H101.784615c-1.846154 0-3.323077-1.476923-3.323077-3.323077V340.8c0-1.846154 1.476923-3.323077 3.323077-3.323077z" fill="#FFFFFF" /><path d="M924.676923 888.123077H101.784615c-16.492308 0-29.907692-13.415385-29.907692-29.907692V340.8c0-16.492308 13.415385-29.907692 29.907692-29.907692h822.892308c16.492308 0 29.907692 13.415385 29.907692 29.907692v517.415385c0 16.492308-13.415385 29.907692-29.907692 29.907692zM101.784615 337.476923c-1.846154 0-3.323077 1.476923-3.323077 3.323077v517.415385c0 1.846154 1.476923 3.323077 3.323077 3.323077h822.892308c1.846154 0 3.323077-1.476923 3.323077-3.323077V340.8c0-1.846154-1.476923-3.323077-3.323077-3.323077H101.784615z" fill="#1C1B55" /><path d="M99.569231 575.876923l744.492307-15.015385c22.892308-4.184615 37.784615-8.861538 44.8-14.153846 7.015385-5.292308 14.646154-15.015385 22.769231-29.16923H99.569231v58.338461z" fill="#D4F1FF" /><path d="M99.569231 864h826.461538v-58.338462H99.569231zM189.579077 442.584615l56.123077-51.2V217.723077l29.907692-58.953846h115.076923l64.861539 16.246154 63.876923-16.246154h250.092307l23.138462 58.953846v185.846154l-80.615385 89.723077-61.907692-50.707693 61.907692-66.584615V231.876923h-61.907692l-43.2-14.276923-45.661538 14.276923h-231.753847v194.953846l-83.815384 66.461539z" fill="#80CFF5" /><path d="M713.271385 521.723077c-2.707692 0-5.415385-0.861538-7.63077-2.707692l-80.615384-66.092308c-2.584615-2.092308-4.184615-5.169231-4.307693-8.492308-0.246154-3.323077 0.984615-6.523077 3.2-8.984615l64.246154-69.046154v-110.769231h-40c-1.230769 0-2.584615-0.246154-3.815384-0.615384l-37.661539-12.43077-40.123077 12.553847c-1.107692 0.369231-2.338462 0.492308-3.56923 0.492307h-209.6v176.861539c0 3.692308-1.723077 7.138462-4.553847 9.353846l-96.246153 76.307692c-4.553846 3.692308-11.076923 3.446154-15.507693-0.492308l-73.476923-66.338461c-2.461538-2.215385-3.938462-5.415385-3.938461-8.861539 0-3.323077 1.353846-6.646154 3.938461-8.861538l58.092308-53.046154V214.769231c0-1.846154 0.492308-3.692308 1.353846-5.415385l34.584615-67.938461c2.092308-4.061538 6.153846-6.523077 10.707693-6.523077h123.815384c0.984615 0 1.969231 0.123077 2.953846 0.36923l60.43077 15.138462 59.446154-15.015385c0.984615-0.246154 1.969231-0.369231 2.953846-0.36923h259.692307c4.923077 0 9.353846 2.953846 11.076923 7.630769l26.953847 68.553846c0.492308 1.353846 0.861538 2.830769 0.861538 4.430769v192.738462c0 2.953846-1.107692 5.784615-3.076923 8l-91.323077 101.661538c-2.215385 2.338462-5.538462 3.692308-8.861538 3.692308z m-63.138462-79.138462l61.907692 50.707693 80.615385-89.723077v-185.846154l-23.138462-58.953846h-250.092307l-60.923077 15.507692c-1.969231 0.492308-3.938462 0.492308-5.784616 0l-62.030769-15.507692h-115.076923l-29.907692 58.953846v168.369231c0 3.323077-1.353846 6.523077-3.938462 8.861538l-52.184615 47.630769 56.123077 50.707693 83.815384-66.461539V243.815385c0-6.646154 5.415385-11.938462 11.938462-11.938462h219.815385l42.092307-13.169231c2.338462-0.738462 4.923077-0.738462 7.384616 0.123077l39.507692 13.046154h49.969231c6.646154 0 11.938462 5.415385 11.938461 11.938462v127.507692c0 3.076923-1.107692 5.907692-3.2 8.123077l-58.830769 63.138461z m-416.369231-56.492307z" fill="#1C1B55" /><path d="M687.425231 465.107692l91.076923-72.861538 13.415384-173.292308 1.723077 180.923077-76.061538 85.661539z" fill="#80CFF5" /><path d="M326.563692 436.430769l-0.246154-0.123077 9.353847-24.861538 0.246153 0.123077-9.353846 24.861538z m-7.507692-2.830769l-21.784615-8.123077 9.353846-24.861538 21.784615 8.123077-9.353846 24.861538z m-29.046154-10.830769l-21.784615-8.123077 9.353846-24.861539 21.784615 8.123077-9.353846 24.861539z m-29.046154-10.953846l-21.784615-8.123077 9.353846-24.861539 21.784615 8.123077-9.353846 24.861539zM786.625231 415.507692l-21.907693-7.876923 8.984616-24.984615 21.907692 7.876923-8.984615 24.984615z m-29.169231-10.584615l-21.907692-7.876923 8.984615-24.984616 21.907692 7.876924-8.984615 24.984615z m-29.169231-10.584615l-21.907692-7.876924 8.984615-24.984615 21.907693 7.876923-8.984616 24.984616z" fill="#1C1B55" /><path d="M276.594462 161.353846l60.061538 70.4h221.415385l42.584615-11.938461c5.169231-1.476923 10.707692-1.353846 15.876923 0.246153l37.169231 11.692308h58.461538l51.692308-70.523077h-246.030769l-55.876923 14.769231c-4.676923 1.230769-9.476923 1.230769-14.153846 0l-55.876924-14.769231-115.323076 0.123077z" fill="#D4F1FF" /><path d="M842.830769 587.692308h-758.153846c-7.384615 0-13.292308-5.907692-13.292308-13.292308s5.907692-13.292308 13.292308-13.292308h758.153846c37.046154 0 68.676923-25.230769 76.923077-61.292307l7.015385-30.523077c1.6-7.138462 8.738462-11.569231 15.876923-9.969231 7.138462 1.6 11.569231 8.738462 9.969231 15.876923l-7.015385 30.523077c-5.292308 23.138462-18.461538 44.184615-37.169231 58.953846-18.461538 14.892308-41.846154 23.015385-65.6 23.015385z" fill="#1C1B55" /><path d="M245.479385 553.505231h80.861538c1.846154 0 3.323077 1.476923 3.323077 3.323077v127.507692c0 1.846154-1.476923 3.323077-3.323077 3.323077h-80.861538c-1.846154 0-3.323077-1.476923-3.323077-3.323077v-127.507692c0-1.846154 1.476923-3.323077 3.323077-3.323077z" fill="#FFF7A6" /><path d="M339.633231 714.243692h-107.446154c-9.107692 0-16.615385-7.507692-16.615385-16.615384v-154.092308c0-9.107692 7.507692-16.615385 16.615385-16.615385h107.446154c9.107692 0 16.615385 7.507692 16.615384 16.615385v154.092308c0 9.107692-7.384615 16.615385-16.615384 16.615384z m-97.476923-26.584615h87.507692v-134.153846h-87.507692v134.153846z" fill="#1C1B55" /><path d="M231.079385 631.043692h101.046153" fill="#FFF7A6" /><path d="M339.387077 645.443692h-115.569231v-28.8h115.569231v28.8z m-101.169231-14.4h86.646154-86.646154z" fill="#1C1B55" /><path d="M693.179077 553.505231h80.861538c1.846154 0 3.323077 1.476923 3.323077 3.323077v127.507692c0 1.846154-1.476923 3.323077-3.323077 3.323077h-80.861538c-1.846154 0-3.323077-1.476923-3.323077-3.323077v-127.507692c0-1.846154 1.476923-3.323077 3.323077-3.323077z" fill="#FFF7A6" /><path d="M787.332923 714.243692h-107.446154c-9.107692 0-16.615385-7.507692-16.615384-16.615384v-154.092308c0-9.107692 7.507692-16.615385 16.615384-16.615385h107.446154c9.107692 0 16.615385 7.507692 16.615385 16.615385v154.092308c0 9.107692-7.384615 16.615385-16.615385 16.615384z m-97.476923-26.584615h87.507692v-134.153846h-87.507692v134.153846z" fill="#1C1B55" /><path d="M678.779077 631.043692h101.046154" fill="#FFF7A6" /><path d="M787.086769 645.443692h-115.446154v-28.8h115.446154v28.8z m-101.169231-14.4h86.646154-86.646154z" fill="#1C1B55" /><path d="M422.792615 689.843692h179.569231v102.03077h-179.569231z" fill="#D4F1FF" /><path d="M440.023385 722.828308h65.846153M440.023385 709.536h65.846153v26.584615h-65.846153zM545.746462 723.074462h37.046153M545.746462 709.782154h37.046153v26.584615h-37.046153z" fill="#80CFF5" /><path d="M440.023385 767.136h143.753846M440.023385 753.843692h143.753846v26.584616h-143.753846z" fill="#80CFF5" /></svg>