<?xml version="1.0" standalone="no"?><!DOCTYPE svg PUBLIC "-//W3C//DTD SVG 1.1//EN" "http://www.w3.org/Graphics/SVG/1.1/DTD/svg11.dtd"><svg class="icon" width="200px" height="200.00px" viewBox="0 0 1024 1024" version="1.1" xmlns="http://www.w3.org/2000/svg"><path d="M144.492308 455.261538v182.523077L497.230769 817.230769V627.692308z" fill="#D4F1FF" /><path d="M529.230769 624.492308L881.476923 467.692308v207.630769L529.230769 819.2z" fill="#7FCDF3" /><path d="M161.846154 427.815385l332.061538-144L857.107692 444.307692 512 604.8z" fill="#FFFFFF" /><path d="M462.523077 395.323077l-8.984615-14.030769c-24.123077-38.030769-48.492308-66.338462-72.246154-84.307693-7.876923-5.907692-16.861538-10.338462-27.569231-13.538461-12.184615-3.569231-19.938462-4.553846-41.846154-6.276923-1.723077-0.123077-3.2-0.246154-4.430769-0.369231l-22.276923-1.969231 12.061538-18.830769c8.615385-13.538462 25.476923-33.723077 43.446154-48.369231 22.4-18.092308 56-36.061538 89.846154-18.584615 41.230769 21.292308 66.584615 74.092308 75.323077 156.923077l0.738461 6.523077-44.061538 42.830769zM334.276923 251.938462c10.584615 1.230769 17.723077 2.707692 27.323077 5.538461 13.784615 4.061538 25.6 9.969231 36.184615 17.846154 23.630769 17.846154 46.523077 43.323077 69.661539 77.538461l10.953846-10.584615c-8.246154-69.415385-28.553846-112.861538-60.061538-129.230769-16.738462-8.615385-37.046154-3.446154-60.307693 15.507692-8.615385 6.892308-16.861538 15.384615-23.753846 23.384616z" fill="#1C1B55" /><path d="M353.230769 514.215385c44.307692-24.492308 69.784615-35.076923 76.553846-31.63077 10.092308 5.046154 14.769231 15.507692 34.092308 15.507693s40 8.123077 58.830769 0c18.830769-8.123077 30.892308-17.846154 32.369231-21.292308 0.984615-2.338462 7.138462-6.892308 18.338462-13.784615l14.276923-10.215385-26.584616-11.815385h-6.153846c-3.2 1.107692-7.876923 5.046154-13.907692 11.815385-9.107692 10.215385-16.738462 10.215385-30.646154 10.215385h-69.907692c-25.476923 2.215385-43.323077 5.046154-53.538462 8.615384-15.384615 5.169231-51.446154 20.307692-52.676923 31.507693-0.738462 7.507692 3.569231 12.923077 13.169231 16.615384l5.784615-5.538461z" fill="#D4F1FF" /><path d="M343.261538 551.753846c-13.661538 66.461538-16.984615 106.092308-10.215384 118.892308 6.769231 12.8 17.107692 32.123077 31.015384 57.846154l59.815385 22.892307 47.507692 30.03077 26.707693 14.4V820.923077l-184.984616-92.307692c-0.984615-41.723077-0.984615-73.107692 0-93.784616 0.984615-20.8 3.938462-52.307692 8.984616-94.646154l21.16923 11.569231z" fill="#7FCDF3" /><path d="M509.784615 858.461538L115.076923 654.523077V415.015385l379.323077-164.923077 90.461538 40.615384L830.769231 401.6l78.646154 34.830769v258.461539L509.784615 858.461538zM144.615385 636.553846l366.646153 189.415385 368.615385-150.892308V455.630769l-61.169231-27.076923-245.907692-110.892308-78.523077-35.323076-349.538461 152v202.215384z" fill="#1C1B55" /><path d="M528.123077 828.923077h-29.538462V606.030769l379.692308-169.969231 12.061539 26.953847-362.215385 162.092307z" fill="#1C1B55" /><path d="M686.276923 789.784615c-4.184615 0.123077 1.969231-4.430769 18.461539-13.661538 24.738462-13.784615 27.692308-196.430769 13.784615-238.276923-9.230769-27.938462-73.476923-71.138462-192.738462-129.723077v-47.753846c158.276923 68.553846 242.461538 119.015385 252.307693 151.507692 14.892308 48.738462 14.892308 197.538462 0 226.707692-9.846154 19.446154-40.492308 36.553846-91.815385 51.2z" fill="#FFF7A6" /><path d="M685.907692 816.861538c-3.938462 0-9.6-0.615385-15.753846-4.676923-11.2-7.507692-15.384615-21.907692-9.846154-34.215384 3.076923-6.769231 7.384615-10.338462 11.323077-13.292308 3.446154-2.584615 8.492308-5.784615 15.753846-9.846154l0.369231-0.738461c1.230769-3.2 3.076923-9.230769 4.923077-19.938462 3.2-17.476923 5.415385-40.984615 6.4-67.692308 2.215385-56.615385-1.353846-105.476923-6.153846-120.123076-0.123077-0.492308-4.430769-12.430769-44.553846-39.384616-31.015385-20.8-76.184615-45.907692-134.4-74.461538l-15.138462-7.384616v-105.846154l37.784616 16.369231c79.876923 34.584615 142.153846 65.107692 184.984615 90.953846 49.846154 29.907692 75.2 53.784615 82.461538 77.538462 7.753846 25.353846 12.307692 73.353846 12.307693 128.615385 0 33.846154-1.846154 94.276923-14.153846 118.276923-13.784615 26.953846-48.246154 47.630769-108.553847 64.861538l-3.323076 0.984615-3.446154 0.123077c-0.246154-0.123077-0.615385-0.123077-0.984616-0.123077z m-0.492307-27.076923h0.738461c51.2-14.646154 82.092308-31.876923 91.938462-51.076923 5.415385-10.584615 11.2-43.938462 11.2-105.96923 0-51.938462-4.307692-98.215385-11.2-120.738462-4.923077-16.123077-28.676923-37.169231-70.523077-62.276923-41.846154-25.107692-103.015385-55.138462-181.784616-89.230769v47.753846c59.323077 29.046154 105.6 54.769231 137.6 76.307692 11.938462 8 48.246154 32.369231 55.138462 53.415385 7.507692 22.523077 9.476923 82.338462 7.507692 129.723077-1.107692 28.061538-3.446154 52.676923-6.892307 71.384615-1.846154 10.215385-3.938462 18.461538-6.276924 24.738462-1.230769 3.2-2.584615 5.907692-3.938461 8 2.707692-4.307692 3.076923-11.2-1.6-16.246154s-11.569231-5.169231-16-2.830769l13.169231 23.630769c-8.246154 4.553846-13.907692 8-16.984616 10.338461-2.338462 1.723077-2.461538 1.969231-2.707692 2.584616-0.123077 0.246154-0.123077 0.492308-0.123077 0.492307l0.246154 0.123077c0.369231-0.123077 0.492308-0.123077 0.492308-0.123077zM132.508308 447.627077l13.170461-26.439385 377.76 188.183385-13.170461 26.439385z" fill="#1C1B55" /><path d="M360.615385 784.984615c-31.261538-4.184615-52.430769-16.369231-63.261539-36.676923-16.246154-30.523077-5.169231-215.630769 29.661539-257.107692 23.138462-27.692308 73.476923-51.076923 151.015384-70.276923l13.784616-31.384615c-108.553846 3.076923-178.584615 23.630769-210.215385 61.415384-47.384615 56.738462-67.815385 256.984615-54.030769 278.030769 7.630769 11.569231 21.169231 44.430769 83.2 56.123077 8.492308 1.476923 25.107692 1.476923 49.846154-0.123077z" fill="#FFF7A6" /><path d="M329.846154 813.169231c-10.338462 0-18.215385-0.615385-24.123077-1.723077-31.753846-5.907692-56.369231-17.353846-75.323077-34.707692-6.769231-6.153846-12.553846-12.923077-17.846154-20.8-1.476923-2.215385-4.061538-6.276923-7.630769-12.307693l-0.246154-0.369231c-6.892308-10.707692-9.353846-28.061538-8.246154-59.815384 0.738462-24.738462 3.815385-54.769231 8.492308-84.553846 7.015385-45.292308 23.753846-127.015385 55.876923-165.538462 37.169231-44.430769 112.492308-67.692308 230.153846-71.138461l21.415385-0.615385c4.676923-0.123077 8.984615 2.092308 11.569231 5.907692 2.584615 3.815385 3.076923 8.738462 1.230769 13.046154l-24.984616 57.107692c-1.723077 3.815385-5.046154 6.646154-9.107692 7.753847l-6.523077 1.6c-88.984615 22.030769-123.446154 45.538462-136.738461 61.415384-9.107692 10.953846-21.661538 52.430769-27.692308 117.784616-5.538462 59.692308-2.092308 102.276923 1.230769 109.292307 6.523077 12.184615 20.553846 19.569231 42.830769 22.523077 6.892308 0.861538 11.938462 6.892308 11.815385 13.907693l-0.861538 26.953846c-0.246154 7.015385-5.661538 12.553846-12.676924 13.046154-12.923077 0.861538-23.753846 1.230769-32.615384 1.230769z m161.846154-423.753846c-108.061538 3.076923-178.707692 23.753846-210.215385 61.415384-20.430769 24.492308-38.646154 80.123077-49.969231 152.369231-4.430769 28.8-7.384615 57.6-8.123077 81.230769-0.984615 30.153846 1.6 40.738462 4.061539 44.307693 0 0 0.246154 0.369231 0.615384 0.984615 4.184615 6.892308 6.030769 9.846154 6.892308 11.076923 4.184615 6.153846 8.492308 11.323077 13.784616 16 15.138462 13.907692 35.446154 23.015385 62.030769 28.061538 7.015385 1.353846 19.692308 1.6 37.538461 0.738462l0.123077-2.830769c-24.615385-5.538462-41.723077-17.107692-51.076923-34.584616-9.846154-18.461538-8-84.553846-4.307692-124.430769 2.215385-24.246154 11.323077-105.723077 33.969231-132.676923 23.015385-27.569231 73.846154-51.2 151.015384-70.276923l13.661539-31.384615z" fill="#1C1B55" /><path d="M451.569231 436.430769c-51.076923-28.061538-84.184615-48.123077-101.169231-61.292307-1.723077-1.353846-3.938462-2.953846-6.523077-4.923077-26.461538-19.569231-52.676923-40.738462-56-64.369231-2.707692-18.830769 0.246154-44.061538 16.615385-58.461539l17.96923 20.307693c-4.184615 3.692308-10.461538 15.015385-7.753846 34.338461 2.092308 14.523077 32.369231 36.923077 45.292308 46.523077 2.707692 1.969231 5.046154 3.692308 7.015385 5.292308 15.630769 12.061538 48.492308 32 97.6 58.953846l-13.046154 23.630769z" fill="#1C1B55" /><path d="M335.138462 251.323077c8.861538-9.476923 15.384615-16.123077 19.56923-19.692308 22.153846-18.830769 40-25.969231 52.43077-23.015384 23.876923 5.661538 42.092308 24.615385 50.830769 47.261538 4.307692 11.076923 10.092308 28.8 15.138461 54.276923 1.230769 6.153846 2.707692 16.492308 4.676923 31.015385-10.584615 1.969231-17.107692 1.969231-19.692307 0-10.584615-8-16.369231-19.938462-23.876923-29.415385-11.076923-14.030769-22.769231-25.476923-32.984616-32.492308-19.692308-13.538462-41.723077-22.892308-66.092307-27.938461z" fill="#FFF7A6" /><path d="M316.676923 277.661538c-3.569231 11.323077-4.184615 19.815385-1.723077 25.476924 2.461538 5.784615 7.015385 12.184615 13.907692 19.446153l28.553847 24.246154 27.815384 19.569231 50.338462 31.384615 2.707692-39.138461c-18.707692-26.215385-30.523077-41.476923-35.323077-45.538462-2.707692-2.338462-12.430769-12.061538-29.907692-21.538461-6.646154-3.692308-14.276923-6.523077-23.384616-9.969231-6.153846-2.338462-17.107692-3.692308-32.984615-3.938462z" fill="#FFFFFF" /><path d="M316.553846 277.538462c-0.492308 1.846154-0.861538 3.2-1.230769 4.061538s-0.492308 2.707692-0.738462 5.415385c27.2 6.276923 42.584615 10.338462 46.153847 11.938461 5.292308 2.461538 29.661538 14.153846 33.107692 18.584616 3.446154 4.430769 19.569231 22.646154 21.661538 24.492307 1.353846 1.230769 4.923077 4.307692 10.461539 8.984616l3.815384 7.015384h8.738462c-22.276923-33.969231-44.307692-56.246154-65.846154-66.953846s-40.246154-15.015385-56.123077-13.538461z" fill="#D2EFFD" /><path d="M738.830769 469.538462c-2.215385 0-4.553846-0.123077-6.769231-0.492308l-193.230769-28.430769 3.938462-26.83077 193.230769 28.43077c7.015385 0.984615 14.030769-1.969231 18.215385-7.753847l22.030769 15.753847c-8.861538 12.307692-22.769231 19.323077-37.415385 19.323077z" fill="#1C1B55" /><path d="M558.030769 356.553846c37.415385-21.538462 66.461538-36.061538 87.261539-43.692308 12.676923-4.553846 20.923077-11.446154 39.630769-15.630769 6.153846-1.353846 16.861538-2.707692 32.123077-4.061538 10.461538-0.861538 20.923077 0 31.138461 2.707692 31.384615 8.369231 49.230769 16.861538 53.661539 25.476923 3.076923 6.030769 12.923077 23.507692 9.230769 42.707692-1.6 8.123077-8.615385 21.415385-21.169231 39.876924-1.476923-19.815385-18.707692-34.830769-51.692307-45.169231-32.861538-10.338462-91.938462-4.184615-176.984616 18.338461v-9.96923c0-4.430769-1.107692-7.876923-3.2-10.584616z" fill="#FFF7A6" /><path d="M757.292308 464.369231c-3.569231 0-7.261538-1.476923-9.846154-4.307693-4.8-5.169231-4.923077-13.169231-0.123077-18.461538 14.153846-15.507692 20.8-28.553846 18.707692-36.676923-1.723077-6.646154-10.953846-13.046154-25.846154-17.846154-39.753846-12.923077-107.446154-5.907692-200.861538 20.8-4.061538 1.230769-8.492308 0.369231-11.815385-2.215385-3.446154-2.584615-5.415385-6.523077-5.415384-10.830769v-41.353846c0-4.8 2.584615-9.353846 6.76923-11.692308 103.261538-59.446154 174.769231-83.692308 218.461539-74.092307 33.353846 7.384615 54.523077 16.246154 68.553846 28.8 15.015385 13.415385 22.276923 31.384615 23.015385 56.615384 0.861538 32.369231-23.015385 67.692308-72.984616 108.184616-2.584615 2.092308-5.661538 3.076923-8.615384 3.076923z m-64.738462-110.646154c21.784615 0 40.369231 2.584615 56 7.630769 24.615385 8 39.261538 20.307692 43.569231 36.676923v0.123077c13.292308-16.615385 19.938462-31.507692 19.569231-44.307692-0.861538-30.769231-11.2-46.646154-70.276923-59.692308-43.569231-9.6-127.261538 30.276923-192.246154 67.2v15.753846c57.846154-15.630769 105.353846-23.384615 143.384615-23.384615z" fill="#1C1B55" /><path d="M562.338462 420.8c105.846154 16.369231 164.923077 23.753846 177.353846 22.153846 18.584615-2.338462 35.076923-32.984615 28.307692-42.092308-6.769231-9.107692-28.307692-27.2-72-23.630769-29.046154 2.338462-73.6 10.215385-133.661538 23.630769v19.938462z" fill="#7FCDF3" /><path d="M470.153846 353.230769h57.846154c11.569231 0 20.923077 9.353846 20.923077 20.923077v49.230769c0 11.569231-9.353846 20.923077-20.923077 20.923077h-57.846154c-11.569231 0-20.923077-9.353846-20.923077-20.923077v-49.230769c0-11.569231 9.353846-20.923077 20.923077-20.923077z" fill="#FFFFFF" /><path d="M528 457.846154h-57.846154c-18.953846 0-34.461538-15.507692-34.461538-34.461539v-49.230769c0-18.953846 15.507692-34.461538 34.461538-34.461538h57.846154c18.953846 0 34.461538 15.507692 34.461538 34.461538v49.230769c0 18.953846-15.507692 34.461538-34.461538 34.461539z m-57.846154-91.076923c-4.061538 0-7.384615 3.323077-7.384615 7.384615v49.230769c0 4.061538 3.323077 7.384615 7.384615 7.384616h57.846154c4.061538 0 7.384615-3.323077 7.384615-7.384616v-49.230769c0-4.061538-3.323077-7.384615-7.384615-7.384615h-57.846154z" fill="#1C1B55" /></svg>