<?xml version="1.0" standalone="no"?><!DOCTYPE svg PUBLIC "-//W3C//DTD SVG 1.1//EN" "http://www.w3.org/Graphics/SVG/1.1/DTD/svg11.dtd"><svg class="icon" width="200px" height="200.00px" viewBox="0 0 1024 1024" version="1.1" xmlns="http://www.w3.org/2000/svg"><path d="M171.076923 721.230769h683.076923c26.461538 0 48 21.538462 48 48v40c0 48.615385-39.384615 88-88 88h-603.076923C162.461538 897.230769 123.076923 857.846154 123.076923 809.230769V769.230769c0-26.461538 21.538462-48 48-48z" fill="#80CFF5" /><path d="M814.153846 923.815385h-603.076923c-63.138462 0-114.584615-51.446154-114.584615-114.584616V769.230769c0-41.107692 33.476923-74.584615 74.584615-74.584615h683.076923c41.107692 0 74.584615 33.476923 74.584616 74.584615v40c0 63.138462-51.446154 114.584615-114.584616 114.584616zM171.076923 721.230769c-26.461538 0-48 21.538462-48 48v40C123.076923 857.723077 162.584615 897.230769 211.076923 897.230769h603.076923c48.492308 0 88-39.507692 88-88V769.230769c0-26.461538-21.538462-48-48-48H171.076923z" fill="#1C1B55" /><path d="M151.384615 589.538462h722.461539c15.630769 0 28.307692 12.676923 28.307692 28.307692v51.692308c0 15.630769-12.676923 28.307692-28.307692 28.307692H151.384615c-15.630769 0-28.307692-12.676923-28.307692-28.307692v-51.692308c0-15.630769 12.676923-28.307692 28.307692-28.307692z" fill="#FFF7A6" /><path d="M873.846154 724.430769H151.384615c-30.276923 0-54.892308-24.615385-54.892307-54.892307v-51.692308c0-30.276923 24.615385-54.892308 54.892307-54.892308h722.461539c30.276923 0 54.892308 24.615385 54.892308 54.892308v51.692308c0 30.276923-24.615385 54.892308-54.892308 54.892307zM151.384615 589.538462c-15.630769 0-28.307692 12.676923-28.307692 28.307692v51.692308c0 15.630769 12.676923 28.307692 28.307692 28.307692h722.461539c15.630769 0 28.307692-12.676923 28.307692-28.307692v-51.692308c0-15.630769-12.676923-28.307692-28.307692-28.307692H151.384615z" fill="#1C1B55" /><path d="M134.153846 508.307692h755.692308c6.153846 0 11.076923 4.923077 11.076923 11.076923v32.984616c0 6.153846-4.923077 11.076923-11.076923 11.076923h-67.815385c-6.153846 0-11.076923 4.923077-11.076923 11.076923 0 1.353846 0.246154 2.584615 0.738462 3.815385 19.446154 52.553846 17.476923 78.769231-5.784616 78.76923-12.061538 0-36.430769-43.938462-88.984615-57.107692-19.076923-4.8-45.907692 28.061538-71.507692 21.046154-24.738462-6.769231-23.753846-42.584615-89.107693-51.938462-16.246154-2.338462-64.861538 22.769231-145.6 75.323077-10.953846 7.138462-25.6 4.923077-33.96923-5.169231l-59.815385-72c-2.092308-2.584615-5.169231-3.938462-8.492308-3.938461H134.153846c-6.153846 0-11.076923-4.923077-11.076923-11.076923V519.384615c0-6.153846 4.923077-11.076923 11.076923-11.076923z" fill="#FFFFFF" /><path d="M805.784615 683.815385c-9.723077 0-16.984615-4.307692-21.538461-7.507693-3.2-2.215385-6.276923-4.923077-10.953846-9.230769-0.369231-0.369231-1.6-1.6-3.076923-2.953846-2.461538-2.338462-5.661538-5.415385-7.138462-6.769231-4.184615-3.938462-7.753846-7.015385-11.323077-9.969231-13.046154-10.584615-25.6-17.230769-39.261538-21.046153-1.969231 0.738462-6.276923 2.830769-15.138462 7.753846-15.384615 8.492308-26.338462 13.292308-40 14.4-6.523077 0.492308-13.046154-0.123077-19.076923-1.723077-8.615385-2.338462-15.876923-6.4-23.261538-13.046154l-0.369231 0.123077-5.415385-5.784616 8.984616-8.36923-9.353847 8c-1.107692-1.230769-10.215385-11.446154-12.8-13.907693-10.338462-9.846154-22.769231-15.261538-42.461538-18.215384-1.107692 0.246154-3.446154 0.738462-6.892308 1.969231-6.892308 2.461538-16 6.523077-26.953846 12.184615-23.384615 12.061538-55.261538 31.261538-94.646154 56.984615-22.276923 14.523077-51.938462 10.092308-68.923077-10.461538l-55.138461-66.338462H134.153846c-20.8 0-37.661538-16.861538-37.661538-37.661538V519.384615c0-20.8 16.861538-37.661538 37.661538-37.661538h755.692308c20.8 0 37.661538 16.861538 37.661538 37.661538v32.984616c0 20.8-16.861538 37.661538-37.661538 37.661538h-46.276923c6.153846 20.307692 8.615385 36.184615 7.630769 49.353846-1.969231 27.076923-19.815385 44.430769-45.415385 44.43077z m-93.292307-84.184616c1.476923 0 2.953846 0.246154 4.430769 0.492308 18.338462 4.553846 34.830769 13.046154 51.692308 26.707692 4.061538 3.2 8.123077 6.769231 12.8 11.2 1.353846 1.353846 4.8 4.430769 7.261538 6.892308 1.476923 1.353846 2.584615 2.461538 2.953846 2.830769 3.692308 3.446154 6.030769 5.415385 8.123077 6.892308 3.2 2.338462 4.923077 2.584615 6.153846 2.584615 11.569231 0 17.969231-6.646154 18.953846-19.692307 0.984615-12.553846-3.076923-31.507692-12.061538-56.246154-0.369231-0.984615-0.738462-1.969231-1.107692-2.83077l10.338461-3.815384v-11.076923c-6.153846 0-11.076923 4.923077-11.076923 11.076923 0 1.107692 0.123077 2.215385 0.492308 3.323077l-5.169231-14.4h83.692308c6.153846 0 11.076923-4.923077 11.076923-11.076923V519.384615c0-6.153846-4.923077-11.076923-11.076923-11.076923H134.153846c-6.153846 0-11.076923 4.923077-11.076923 11.076923v32.984616c0 6.153846 4.923077 11.076923 11.076923 11.076923h179.323077l63.138462 75.938461c8.369231 10.092308 23.015385 12.307692 33.96923 5.169231 40.246154-26.215385 72.861538-45.784615 96.984616-58.338461 12.061538-6.276923 22.276923-10.830769 30.4-13.661539 12.184615-4.307692 16.615385-3.692308 18.338461-3.446154 25.723077 3.692308 43.569231 11.569231 58.215385 25.353846 0.615385 0.615385 2.461538 2.338462 8.738461 9.23077 1.476923 1.723077 2.953846 3.323077 4.061539 4.430769 0.492308 0.492308 0.984615 1.107692 1.476923 1.6 6.153846 6.523077 10.707692 9.6 16.615385 11.2 3.2 0.861538 6.523077 1.107692 9.96923 0.861538 8-0.615385 14.892308-3.2 29.292308-11.2 13.784615-7.384615 21.169231-10.953846 27.815385-10.953846z m-160.123077-4.061538s0.123077 0 0 0c0.123077 0 0 0 0 0zM811.569231 578.461538z" fill="#1C1B55" /><path d="M132.307692 509.538462h759.384616c5.046154 0 9.230769 4.184615 9.230769 9.230769s-4.184615 9.230769-9.230769 9.230769H132.307692c-5.046154 0-9.230769-4.184615-9.230769-9.230769s4.184615-9.230769 9.230769-9.230769z" fill="#80CFF5" /><path d="M260.676923 564.553846c-20.676923 0-37.538462-6.4-50.338461-19.076923C188.553846 523.938462 187.446154 492.307692 187.446154 486.153846h23.876923c0 2.707692 0.492308 27.2 15.753846 42.338462 8.246154 8.246154 19.815385 12.184615 34.215385 12.184615 48.984615-0.492308 50.461538-48.984615 50.461538-54.523077h23.876923c0 5.784615-0.861538 26.215385-12.430769 45.292308-8.984615 14.892308-26.953846 32.738462-61.538462 33.107692h-0.984615z" fill="#1C1B55" /><path d="M259.692308 541.538462c25.476923 0 47.015385-19.076923 47.015384-32H215.384615c0 14.276923 18.830769 32 44.307693 32z" fill="#FFF7A6" /><path d="M402.215385 564.553846c-20.676923 0-37.538462-6.4-50.338462-19.076923-21.784615-21.538462-22.892308-53.169231-22.892308-59.323077h23.876923c0 2.707692 0.492308 27.2 15.753847 42.338462 8.246154 8.246154 19.815385 12.184615 34.215384 12.184615 48.984615-0.492308 50.461538-48.984615 50.461539-54.523077h23.876923c0 5.784615-0.861538 26.215385-12.430769 45.292308-8.984615 14.892308-26.953846 32.738462-61.538462 33.107692h-0.984615z" fill="#1C1B55" /><path d="M401.230769 541.538462c25.476923 0 47.015385-19.076923 47.015385-32H356.923077c0 14.276923 18.830769 32 44.307692 32z" fill="#FFF7A6" /><path d="M543.753846 564.553846c-20.676923 0-37.538462-6.4-50.338461-19.076923-21.784615-21.538462-22.892308-53.169231-22.892308-59.323077h23.876923c0 2.707692 0.492308 27.2 15.753846 42.338462 8.246154 8.246154 19.815385 12.307692 34.215385 12.184615 48.984615-0.492308 50.461538-48.984615 50.461538-54.523077h23.876923c0 5.784615-0.861538 26.215385-12.430769 45.292308-8.984615 14.892308-26.953846 32.738462-61.538461 33.107692h-0.984616z" fill="#1C1B55" /><path d="M542.769231 541.538462c25.476923 0 47.015385-19.076923 47.015384-32H498.461538c0 14.276923 18.830769 32 44.307693 32z" fill="#FFF7A6" /><path d="M685.292308 564.553846c-20.676923 0-37.538462-6.4-50.338462-19.076923-21.784615-21.538462-22.892308-53.169231-22.892308-59.323077h23.876924c0 2.707692 0.492308 27.2 15.753846 42.338462 8.246154 8.246154 19.815385 12.307692 34.215384 12.184615 48.984615-0.492308 50.461538-48.984615 50.461539-54.523077h23.876923c0 5.784615-0.861538 26.215385-12.430769 45.292308-8.984615 14.892308-26.953846 32.738462-61.538462 33.107692h-0.984615z" fill="#1C1B55" /><path d="M684.307692 541.538462c25.476923 0 47.015385-19.076923 47.015385-32H640c0 14.276923 18.830769 32 44.307692 32z" fill="#FFF7A6" /><path d="M133.907692 398.4C190.646154 291.938462 316.923077 238.769231 512.615385 238.769231c196.061538 0 321.6 53.415385 376.861538 160.123077 7.507692 14.646154 11.446154 30.769231 11.446154 47.138461V470.153846c0 7.507692-6.030769 13.538462-13.538462 13.538462H135.384615c-7.507692 0-13.538462-6.030769-13.538461-13.538462v-23.384615c0-16.861538 4.184615-33.476923 12.061538-48.369231z" fill="#D4F1FF" /><path d="M887.384615 510.276923H135.384615c-22.153846 0-40.123077-17.969231-40.123077-40.123077v-23.384615c0-21.169231 5.292308-42.215385 15.261539-60.8 31.015385-58.092308 81.107692-102.276923 148.923077-131.076923 66.338462-28.307692 151.507692-42.584615 253.169231-42.584616 101.784615 0 186.953846 14.4 253.046153 42.707693 67.569231 29.046154 117.169231 73.353846 147.446154 131.692307 9.476923 18.338462 14.4 38.769231 14.4 59.446154V470.153846c0 22.153846-17.969231 40.123077-40.123077 40.123077zM512.615385 238.769231c-97.969231 0-179.692308 13.661538-242.707693 40.492307C207.753846 305.723077 162.092308 345.846154 134.030769 398.4 126.030769 413.169231 121.846154 429.907692 121.846154 446.769231v23.384615c0 7.507692 6.030769 13.538462 13.538461 13.538462h752c7.507692 0 13.538462-6.030769 13.538462-13.538462v-24.123077c0-16.369231-3.938462-32.615385-11.446154-47.138461-27.323077-52.8-72.492308-93.046154-134.276923-119.507693-62.769231-26.953846-144.369231-40.615385-242.584615-40.615384z" fill="#1C1B55" /><path d="M124.553846 468.923077H899.692308c1.476923 5.784615-1.969231 11.569231-7.753846 13.046154-0.861538 0.246154-1.846154 0.369231-2.707693 0.369231H136.246154c-6.523077 0-11.815385-5.292308-11.815385-11.815385 0-0.492308 0.123077-0.984615 0.123077-1.6z" fill="#80CFF5" /><path d="M162.931381 411.435554a59.692308 171.692308 68.999 1 0 320.575008-123.063636 59.692308 171.692308 68.999 1 0-320.575008 123.063636Z" fill="#FFFFFF" /><path d="M166.276923 724.8l700.184615-0.123077c19.692308 0 35.692308 16 35.692308 35.692308v7.630769H123.076923c0-23.876923 19.323077-43.2 43.2-43.2z" fill="#D4F1FF" /><path d="M624.369231 378.215385c-3.076923 0-6.276923-1.107692-8.738462-3.323077-5.538462-4.8-6.030769-13.292308-1.230769-18.707693 29.538462-33.6 31.753846-51.076923 30.4-58.584615-0.738462-3.938462-9.846154-15.630769-15.876923-23.384615-14.523077-18.461538-32.492308-41.476923-33.230769-64.738462-0.615385-18.338462 8.369231-39.630769 27.446154-65.230769C627.569231 138.338462 635.815385 137.107692 641.723077 141.538462c5.907692 4.430769 7.138462 12.676923 2.707692 18.584615-18.830769 25.230769-22.523077 40.246154-22.153846 48.492308 0.246154 14.646154 15.384615 33.846154 27.446154 49.230769 10.830769 13.784615 19.323077 24.615385 21.169231 35.076923 3.938462 21.907692-8 48.246154-36.676923 80.738461-2.584615 3.076923-6.153846 4.553846-9.846154 4.553847zM696.123077 363.815385c-3.076923 0-6.276923-1.107692-8.738462-3.323077-5.538462-4.8-6.030769-13.292308-1.230769-18.707693 29.538462-33.6 31.753846-51.076923 30.4-58.584615-0.738462-3.938462-9.846154-15.630769-15.876923-23.384615-14.523077-18.461538-32.492308-41.476923-33.230769-64.738462-0.615385-18.338462 8.369231-39.630769 27.446154-65.230769 4.430769-5.907692 12.676923-7.138462 18.584615-2.707692 5.907692 4.430769 7.138462 12.676923 2.707692 18.584615-18.830769 25.230769-22.523077 40.246154-22.153846 48.492308 0.492308 14.523077 15.507692 33.723077 27.569231 49.107692 10.830769 13.784615 19.323077 24.615385 21.169231 35.076923 3.938462 21.907692-8 48.246154-36.676923 80.738462-2.584615 3.076923-6.276923 4.676923-9.969231 4.676923z" fill="#1C1B55" /><path d="M170.092308 705.969231l45.538461-74.338462" fill="#FFF7A6" /><path d="M170.092308 719.261538c-2.338462 0-4.8-0.615385-6.892308-1.96923-6.276923-3.815385-8.246154-12.061538-4.430769-18.338462l45.538461-74.338461c3.815385-6.276923 12.061538-8.246154 18.338462-4.43077s8.246154 12.061538 4.430769 18.338462l-45.538461 74.338461c-2.584615 4.061538-7.015385 6.4-11.446154 6.4z" fill="#1C1B55" /><path d="M256.246154 705.969231l29.907692-48.123077" fill="#FFF7A6" /><path d="M256.246154 719.261538c-2.338462 0-4.8-0.615385-7.015385-1.96923-6.276923-3.938462-8.123077-12.061538-4.307692-18.338462l29.907692-48.123077c3.938462-6.276923 12.061538-8.123077 18.338462-4.307692 6.276923 3.938462 8.123077 12.061538 4.307692 18.338461l-29.907692 48.123077c-2.584615 3.938462-6.892308 6.276923-11.323077 6.276923z" fill="#1C1B55" /><path d="M354.707692 705.969231l7.261539-16.246154" fill="#FFF7A6" /><path d="M354.707692 719.261538c-1.846154 0-3.692308-0.369231-5.415384-1.107692-6.646154-2.953846-9.723077-10.830769-6.769231-17.6l7.261538-16.246154c2.953846-6.646154 10.830769-9.723077 17.6-6.76923 6.646154 2.953846 9.723077 10.830769 6.769231 17.6l-7.261538 16.246153c-2.215385 4.923077-7.138462 7.876923-12.184616 7.876923z" fill="#1C1B55" /></svg>