<?xml version="1.0" standalone="no"?><!DOCTYPE svg PUBLIC "-//W3C//DTD SVG 1.1//EN" "http://www.w3.org/Graphics/SVG/1.1/DTD/svg11.dtd"><svg class="icon" width="200px" height="200.00px" viewBox="0 0 1024 1024" version="1.1" xmlns="http://www.w3.org/2000/svg"><path d="M829.784615 817.230769c53.907692-5.661538 81.230769-32.492308 81.846154-80.369231 0.738462-47.876923-26.584615-74.584615-81.846154-80.36923V817.230769z" fill="#D4F1FF" /><path d="M822.839385 849.086769l-2.83077-29.415384c60.8-5.784615 89.230769-32 89.23077-82.584616 0-50.584615-28.553846-76.8-89.969231-82.584615l2.707692-29.415385c37.661538 3.569231 66.707692 14.646154 86.276923 33.107693 20.184615 19.076923 30.523077 45.538462 30.523077 78.892307 0 33.230769-10.215385 59.815385-30.276923 78.892308-19.446154 18.461538-48.246154 29.661538-85.661538 33.107692zM700.624 597.025231h-0.984615c-8.123077-0.492308-14.276923-7.507692-13.784616-15.753846l14.646154-225.846154c0.492308-7.753846 6.892308-13.784615 14.769231-13.784616h56.492308c7.876923 0 14.276923 6.153846 14.76923 13.907693l12.307693 225.846154c0.492308 8.123077-5.784615 15.138462-13.907693 15.507692-8.123077 0.369231-15.138462-5.784615-15.507692-13.907692l-11.569231-211.938462h-28.676923l-13.907692 212.184615c-0.492308 7.753846-7.015385 13.784615-14.646154 13.784616z" fill="#1C1B55" /><path d="M832.562462 710.009846v49.476923c14.276923-5.415385 21.415385-13.661538 21.415384-24.738461 0-11.076923-7.138462-19.323077-21.415384-24.738462z" fill="#80CFF5" /><path d="M823.331692 794.440615l-7.261538-28.676923c37.415385-9.476923 37.415385-25.6 37.538461-30.892307 0-5.292308 0.123077-21.292308-37.415384-30.646154l7.138461-28.676923c27.446154 6.892308 60.061538 22.769231 59.815385 59.446154-0.246154 36.676923-32.738462 52.553846-59.815385 59.446153z" fill="#1C1B55" /><path d="M570.777846 600.471385h201.723077c17.723077 0 32 14.276923 32 32v206.76923c0 17.723077-14.276923 32-32 32h-201.723077c-57.723077 0-104.615385-46.892308-104.615384-104.615384v-61.538462c0-57.723077 46.892308-104.615385 104.615384-104.615384z" fill="#D4F1FF" /><path d="M772.500923 900.779077h-201.723077c-73.969231 0-134.153846-60.184615-134.153846-134.153846v-61.538462c0-73.969231 60.184615-134.153846 134.153846-134.153846h201.723077c33.969231 0 61.538462 27.569231 61.538462 61.538462v206.76923c0 33.969231-27.569231 61.538462-61.538462 61.538462z m-201.723077-300.307692c-57.723077 0-104.615385 46.892308-104.615384 104.615384v61.538462c0 57.723077 46.892308 104.615385 104.615384 104.615384h201.723077c17.6 0 32-14.4 32-32v-206.76923c0-17.6-14.4-32-32-32h-201.723077z" fill="#1C1B55" /><path d="M549.977846 735.856a58.092308 57.969231 0 1 0 116.184616 0 58.092308 57.969231 0 1 0-116.184616 0Z" fill="#FFF7A6" /><path d="M608.070154 823.486769c-48.246154 0-87.630769-39.261538-87.630769-87.507692 0-48.246154 39.261538-87.507692 87.630769-87.507692s87.630769 39.261538 87.630769 87.507692c-0.123077 48.123077-39.384615 87.507692-87.630769 87.507692z m0-145.6c-32 0-58.092308 25.969231-58.092308 57.969231s26.092308 57.969231 58.092308 57.969231c32 0 58.092308-25.969231 58.092308-57.969231-0.123077-32-26.092308-57.969231-58.092308-57.969231zM525.485538 886.871385c-0.246154 39.261538 25.969231 60.8 78.523077 64.36923 41.6-0.246154 88.246154-17.107692 140.061539-50.584615h-56.615385c-29.538462 20.923077-56 30.4-79.261538 28.676923s-37.046154-12.061538-41.230769-31.015385c-9.6-1.353846-16.984615-2.707692-22.03077-4.061538-4.923077-1.353846-11.446154-3.815385-19.446154-7.384615z" fill="#1C1B55" /><path d="M744.070154 340.656v-50.584615m0-126.276923v-67.692308" fill="#FFFFFF" /><path d="M758.839385 340.656h-29.538462v-50.584615h29.538462v50.584615z m0-176.861538h-29.538462v-67.692308h29.538462v67.692308z" fill="#1C1B55" /><path d="M759.208615 601.948308v267.56923h13.538462c17.230769 0 31.138462-13.907692 31.138461-31.138461v-205.292308c0-17.230769-13.907692-31.138462-31.138461-31.138461h-13.538462zM715.516308 571.917538l13.046154-202.707692h28.923076l10.707693 202.707692z" fill="#80CFF5" /><path d="M717.731692 569.209846l35.938462-194.707692h-21.538462z" fill="#D4F1FF" /><path d="M221.046154 439.384615c-37.661538-3.569231-66.707692-14.646154-86.276923-33.107692-20.184615-19.076923-30.523077-45.538462-30.523077-78.892308 0-33.230769 10.215385-59.815385 30.276923-78.892307 19.446154-18.461538 48.246154-29.661538 85.661538-33.23077l2.83077 29.415385c-60.8 5.784615-89.230769 32-89.23077 82.584615 0 50.584615 28.553846 76.8 89.969231 82.584616l-2.707692 29.538461zM327.876923 722.830769h-56.492308c-7.876923 0-14.276923-6.153846-14.76923-13.907692l-12.307693-225.846154c-0.492308-8.123077 5.784615-15.138462 13.907693-15.507692 8.123077-0.492308 15.138462 5.784615 15.507692 13.907692l11.569231 211.938462h28.676923L327.753846 481.230769c0.492308-8.123077 7.507692-14.276923 15.753846-13.784615 8.123077 0.492308 14.276923 7.507692 13.784616 15.753846l-14.646154 225.846154c-0.615385 7.753846-7.015385 13.784615-14.769231 13.784615z" fill="#1C1B55" /><path d="M210.461538 354.461538v-49.476923c-14.276923 5.415385-21.415385 13.661538-21.415384 24.738462 0 11.076923 7.138462 19.323077 21.415384 24.738461z" fill="#80CFF5" /><path d="M219.692308 388.923077c-27.446154-6.892308-60.061538-22.769231-59.815385-59.446154 0.246154-36.553846 32.615385-52.430769 59.692308-59.323077l7.261538 28.676923c-37.415385 9.476923-37.415385 25.6-37.538461 30.892308 0 5.292308-0.123077 21.292308 37.415384 30.646154l-7.015384 28.553846z" fill="#1C1B55" /><path d="M472.246154 464H270.523077c-17.723077 0-32-14.276923-32-32V225.230769c0-17.723077 14.276923-32 32-32h201.723077c57.723077 0 104.615385 46.892308 104.615384 104.615385v61.538461c0 57.723077-46.892308 104.615385-104.615384 104.615385z" fill="#D4F1FF" /><path d="M472.246154 493.538462H270.523077c-33.969231 0-61.538462-27.569231-61.538462-61.538462V225.230769c0-33.969231 27.569231-61.538462 61.538462-61.538461h201.723077c73.969231 0 134.153846 60.184615 134.153846 134.153846v61.538461c0 73.969231-60.184615 134.153846-134.153846 134.153847zM270.523077 193.230769c-17.6 0-32 14.4-32 32v206.769231c0 17.6 14.4 32 32 32h201.723077c57.723077 0 104.615385-46.892308 104.615384-104.615385v-61.538461c0-57.723077-46.892308-104.615385-104.615384-104.615385H270.523077z" fill="#1C1B55" /><path d="M493.046154 328.615385a58.092308 57.969231 0 1 0-116.184616 0 58.092308 57.969231 0 1 0 116.184616 0Z" fill="#FFF7A6" /><path d="M434.953846 416.123077c-48.246154 0-87.630769-39.261538-87.630769-87.507692 0-48.246154 39.261538-87.507692 87.630769-87.507693s87.630769 39.261538 87.630769 87.507693c0 48.246154-39.261538 87.507692-87.630769 87.507692z m0-145.6c-32 0-58.092308 25.969231-58.092308 57.969231s26.092308 57.969231 58.092308 57.96923 58.092308-25.846154 58.092308-57.846153-26.092308-58.092308-58.092308-58.092308zM517.538462 177.6c0.246154-39.261538-25.969231-60.8-78.523077-64.369231-41.6 0.246154-88.246154 17.107692-140.061539 50.584616h56.615385c29.538462-20.923077 56-30.4 79.261538-28.676923s37.046154 12.061538 41.230769 31.015384c9.6 1.353846 16.984615 2.707692 22.03077 4.061539 4.923077 1.353846 11.446154 3.815385 19.446154 7.384615z" fill="#1C1B55" /><path d="M298.953846 723.815385v244.553846" fill="#FFFFFF" /><path d="M313.723077 968.369231h-29.538462V723.815385h29.538462z" fill="#1C1B55" /><path d="M283.815385 462.523077V194.953846h-13.538462c-17.230769 0-31.138462 13.907692-31.138461 31.138462v205.292307c0 17.230769 13.907692 31.138462 31.138461 31.138462h13.538462z" fill="#FFFFFF" /><path d="M327.507692 492.553846l-13.046154 202.707692H285.538462l-10.707693-202.707692z" fill="#80CFF5" /><path d="M285.292308 688.984615l11.938461-196.430769h-22.892307z" fill="#D4F1FF" /><path d="M863.384615 277.784615c-8.369231 13.415385-23.753846 23.630769-39.876923 17.969231-14.769231-5.292308-30.4-20.184615-19.2-37.907692 6.030769-9.6 17.107692-14.276923 28.061539-11.446154 8.246154 2.092308 26.215385 16 34.584615 2.584615l39.630769-63.507692c0.861538-1.476923-0.738462-3.938462-2.338461-4.553846-27.692308-10.830769-56.738462-22.769231-85.046154-32.246154-2.338462-0.738462-4.307692 0-5.661538 2.215385l-50.092308 80.246154c-4.430769 6.523077-8.861538 14.276923-14.769231 19.815384-10.338462 9.6-28.676923 7.384615-39.630769 0-8.123077-5.538462-13.415385-14.892308-11.815385-24.861538 1.969231-11.938462 12.923077-21.415385 24.861539-20.553846 12.184615 0.861538 32.246154 17.353846 41.723077 2.215384l60.184615-96.369231c3.815385-6.153846 8.369231-9.846154 15.384615-7.507692 7.630769 2.584615 15.138462 5.538462 22.646154 8.369231 15.384615 5.907692 30.646154 11.938462 45.907693 17.969231 6.030769 2.461538 12.061538 4.8 18.092307 7.261538 2.584615 1.107692 6.4 2.215385 9.723077 3.815385 2.830769 1.353846 5.292308 3.2 6.030769 5.538461 0.861538 2.953846-0.492308 6.030769-1.96923 8.492308l-76.43077 122.461538zM187.815385 730.707692c3.323077 2.584615 3.446154 7.630769 0.246153 10.461539l-35.692307 30.646154 91.2 71.261538c9.6 7.507692 8 25.476923-3.569231 40.246154-11.569231 14.769231-27.569231 19.323077-37.169231 11.815385-9.6-7.507692-10.338462-25.230769 1.107693-40l10.461538-13.292308c1.107692-1.476923 0.861538-3.569231-0.615385-4.8l-97.6-76.184616c-3.323077-2.584615-3.446154-7.630769-0.246153-10.461538l41.846153-36.061538c2.461538-2.092308 6.030769-2.215385 8.615385-0.246154l21.415385 16.615384z" fill="#1C1B55" /></svg>