<?xml version="1.0" standalone="no"?><!DOCTYPE svg PUBLIC "-//W3C//DTD SVG 1.1//EN" "http://www.w3.org/Graphics/SVG/1.1/DTD/svg11.dtd"><svg class="icon" width="200px" height="200.00px" viewBox="0 0 1024 1024" version="1.1" xmlns="http://www.w3.org/2000/svg"><path d="M159.150918 35.65374h524.232922v830.240365H159.150918z" fill="#D4F1FF" /><path d="M698.137111 895.400648H144.397647c-8.114299 0-14.753272-6.638972-14.753272-14.753271V20.900468c0-8.114299 6.638972-14.753272 14.753272-14.753271h553.739464c8.114299 0 14.753272 6.638972 14.753272 14.753271v859.746909c0 8.114299-6.638972 14.753272-14.753272 14.753271zM159.150918 865.894105h524.232922V35.65374H159.150918v830.240365z" fill="#1C1B55" /><path d="M758.502581 571.443391c1.475327-10.573178 2.335935-21.392244 2.335935-32.334254 0-123.804538-100.199304-224.126786-223.880898-224.126786s-223.880898 100.322248-223.880898 224.126786 100.199304 224.126786 223.880898 224.126786c34.670188 0 67.619162-7.868412 96.879817-22.006964" fill="#FFFFFF" /><path d="M527.245047 777.743307c-10.081402-0.368832-20.039861-1.475327-29.998319-3.073599l4.917758-29.137711c8.606075 1.475327 17.458038 2.335935 26.310001 2.704766l-1.22944 29.506544z m28.76888-0.491776l-2.335934-29.3836c8.729019-0.737664 17.580982-1.967103 26.187057-3.688318l6.024252 28.891824c-9.835514 1.844159-19.916917 3.319486-29.875375 4.180094z m-86.798415-8.974907c-9.589627-2.82771-19.179253-6.27014-28.277104-10.32729l11.925561-27.047665c7.991356 3.565374 16.351543 6.638972 24.71173 9.097851l-8.360187 28.277104z m144.459119-2.950654l-9.466683-27.908273c7.868412-2.704766 15.736823-5.901309 23.236403-9.466682l12.786169 26.555889c-8.606075 4.05715-17.580982 7.745468-26.555889 10.819066z m-198.308561-20.654581c-8.606075-5.040701-16.966262-10.819066-24.834674-16.966262l18.072758-23.236403c6.88486 5.409533 14.261496 10.450234 21.761076 14.876215l-14.99916 25.32645z m-46.472806-35.899628c-7.130748-7.007804-13.892664-14.630328-20.03986-22.498739l23.236403-18.195702c5.409533 6.88486 11.310842 13.523832 17.580982 19.671029l-20.777525 21.023412zM332.501861 662.544843c-5.163645-8.606075-9.835514-17.580982-13.892664-26.678833l26.924721-11.925561c3.565374 7.991356 7.622524 15.859767 12.171449 23.359347L332.501861 662.544843z m-23.974067-53.726497c-2.950654-9.589627-5.286589-19.425141-6.88486-29.260656l29.137712-4.917757c1.475327 8.606075 3.565374 17.335094 6.024253 25.695281l-28.277105 8.483132z m464.482171-35.284909l-29.260655-4.180093c1.229439-8.606075 1.967103-17.458038 2.090046-26.310001l29.506544 0.491775c0 10.081402-0.860608 20.162805-2.335935 29.998319z m-474.563573-22.744627c-0.245888-3.934206-0.245888-7.868412-0.245888-11.679673 0-6.147197 0.245888-12.294393 0.737664-18.318646l29.383599 2.212991c-0.368832 5.286589-0.61472 10.696122-0.614719 16.105655 0 3.44243 0.122944 6.88486 0.245888 10.32729l-29.506544 1.352383z m446.532357-32.948973c-0.860608-8.729019-2.335935-17.458038-4.303038-26.064114l28.76888-6.638972c2.212991 9.712571 3.934206 19.793973 4.917757 29.752431l-29.383599 2.950655z m-413.214552-19.793973l-28.891823-5.778365c1.967103-9.835514 4.548925-19.671029 7.745467-29.137712l28.031217 9.343739c-2.950654 8.360187-5.163645 16.966262-6.884861 25.572338z m401.780766-30.490095c-2.950654-8.237243-6.516028-16.351543-10.573178-24.219954l26.187058-13.523833c4.548925 8.851963 8.606075 18.195702 12.048505 27.662385l-27.662385 10.081402z m-385.552167-18.44159L321.313963 436.450954c4.303038-8.974907 9.220795-17.82687 14.630328-26.310001l24.834674 15.982711c-4.794813 7.376636-9.097851 15.122103-12.786169 22.990515zM710.062673 421.697683c-4.917757-7.253692-10.32729-14.261496-16.228599-20.900468l22.129907-19.548085c6.638972 7.49958 12.786169 15.490935 18.44159 23.851122L710.062673 421.697683z m-334.407492-15.982711l-22.744628-18.810422c6.393084-7.745468 13.277945-15.122103 20.654581-21.884019l20.162805 21.515188c-6.393084 5.901309-12.417337 12.417337-18.072758 19.179253z m300.352023-22.867571c-6.516028-5.901309-13.523832-11.310842-20.777525-16.351543l16.720375-24.342898c8.237243 5.655421 16.228599 11.925561 23.605235 18.564533l-19.548085 22.129908z m-262.854124-12.540281l-17.458039-23.728179c8.114299-5.901309 16.597431-11.433786 25.32645-16.228599l14.38444 25.818226c-7.745468 4.05715-15.122103 8.851963-22.252851 14.138552zM633.714492 353.463801c-7.745468-4.05715-15.859767-7.745468-24.097011-10.696122l10.32729-27.662384c9.343739 3.44243 18.687477 7.622524 27.539441 12.294393L633.714492 353.463801z m-175.563934-8.360187l-11.064953-27.293553c9.343739-3.811262 18.933365-7.007804 28.645935-9.589626l7.49958 28.522992c-8.483131 2.212991-16.966262 5.040701-25.080562 8.360187z m127.369913-9.712571c-8.483131-1.967103-17.21215-3.565374-25.94117-4.425981l3.196542-29.3836c9.958458 1.106495 19.916917 2.82771 29.629488 5.163645l-6.88486 28.645936z m-77.577621-3.688318l-4.057149-29.260655c9.835514-1.352383 19.916917-2.090047 29.998319-2.212991l0.368831 29.506544c-8.851963 0.122944-17.703926 0.860608-26.310001 1.967102zM600.888462 824.830832H225.540641c-8.114299 0-14.753272-6.638972-14.753272-14.753272s6.638972-14.753272 14.753272-14.753271h375.347821c8.114299 0 14.753272 6.638972 14.753272 14.753271s-6.638972 14.753272-14.753272 14.753272zM544.580142 725.61508c-14.507384 0-28.891824-1.721215-42.784488-5.163645l6.761916-27.908273c22.744627 5.532477 47.210469 5.655421 70.200984 0.491776l6.393085 28.031216c-13.277945 2.950654-26.924721 4.548925-40.571497 4.548926z m-89.74907-23.851123c-24.342898-13.892664-45.36631-33.686637-60.857246-56.92304l23.974067-15.982711c13.032057 19.671029 30.735983 36.26846 51.144675 47.948133l-14.261496 24.957618z m-82.741265-102.658182c-5.532477-17.580982-8.360187-35.899628-8.360188-54.464161 0-9.589627 0.737664-19.302197 2.212991-28.645936l28.400048 4.548925c-1.229439 7.991356-1.844159 16.105655-1.844159 24.097011 0 15.613879 2.335935 31.104815 7.007804 45.858086l-27.416496 8.606075zM725.430664 544.641614h-28.76888c0-23.974067-5.409533-46.964582-16.105655-68.233882L706.251411 463.498619c12.663225 25.32645 19.179253 52.620002 19.179253 81.142995z m-318.424781-64.791452l-26.064113-12.294393c11.925561-25.32645 29.875375-47.825189 51.882339-65.160283l17.82687 22.621683c-18.564534 14.630328-33.686637 33.563693-43.645096 54.832993z m249.330292-38.358506c-15.982711-17.335094-36.145516-30.981871-58.152479-39.219114l10.204346-26.924721c26.187057 9.835514 50.03818 25.941169 69.094489 46.59575l-21.146356 19.548085zM487.411214 403.624925l-10.819066-26.678833c21.638132-8.729019 44.505703-13.277945 67.987994-13.277945 4.794813 0 9.589627 0.245888 14.38444 0.61472l-2.212991 28.645936c-4.05715-0.368832-8.114299-0.491776-12.171449-0.491776-19.793973 0-38.973226 3.811262-57.168928 11.187898z" fill="#1C1B55" /><path d="M542.121263 545.256333m-151.835755 0a151.835755 151.835755 0 1 0 303.67151 0 151.835755 151.835755 0 1 0-303.67151 0Z" fill="#FFF7A6" /><path d="M544.088366 657.012366c-60.98019 0-110.649538-49.669348-110.649538-110.649537s49.669348-110.649538 110.649538-110.649538c44.751591 0 84.708368 26.678833 102.043463 67.86505 3.073598 7.376636-0.368832 15.736823-7.745468 18.810421s-15.736823-0.368832-18.810422-7.745467c-12.786169-30.490095-42.415656-50.284068-75.487573-50.284068-45.120423 0-81.880658 36.760235-81.880658 81.880658 0 45.120423 36.760235 81.880658 81.880658 81.880658 7.991356 0 14.38444 6.393084 14.38444 14.38444s-6.516028 14.507384-14.38444 14.507383z" fill="#1C1B55" /><path d="M545.194861 545.871053m-82.372433 0a82.372434 82.372434 0 1 0 164.744867 0 82.372434 82.372434 0 1 0-164.744867 0Z" fill="#80CFF5" /><path d="M554.907432 512.799136l168.310241 102.043462c22.744627 13.76972 38.850282 36.26846 44.628647 62.209629L798.213471 813.888822l67.373274 78.19234-106.715332 95.158603-143.844399-91.470285H700.104214V716.886061L545.440749 587.671989c-19.425141-12.663225-24.834674-38.727338-12.171449-58.152479 5.040701-7.745468 12.540281-13.646776 21.2693-16.597431l0.368832-0.122943z" fill="#D4F1FF" /><path d="M761.822067 1024L513.598271 866.262937H670.597671V730.655781l-142.983792-119.378557c-15.245047-10.573178-25.695282-26.432945-29.383599-44.628647-3.688318-18.564534-0.122944-37.374955 10.32729-53.234722 8.606075-13.155001 21.515188-23.236403 36.26846-28.400048l13.523832-4.671869 180.235803 109.17421c29.506543 17.82687 50.6529 47.456357 58.152479 81.020051L825.507024 800.119102l81.388882 94.543883-145.073839 129.337015zM615.027014 895.76948l143.844399 91.470285 106.715332-95.158603-67.373274-78.19234-30.367151-136.836595c-5.778365-25.818225-22.006964-48.439909-44.628647-62.209629l-168.310241-102.043462-0.368832 0.122943c-8.729019 3.073598-16.228599 8.974907-21.2693 16.597431-12.417337 19.056309-7.253692 44.997479 11.55673 57.783648l0.614719 0.368831L700.104214 716.886061v178.883419h-85.0772z" fill="#1C1B55" /><path d="M159.273862 36.514347h82.741266c8.483131 8.606075 25.572338 22.621683 51.267619 41.800937 18.810421 10.081402 44.136871 17.089206 75.856405 21.146356h114.829632L159.150918 782.169288 159.273862 36.514347z" fill="#FFFFFF" /><path d="M283.324289 35.65374l33.809581 28.277104c5.778365 4.794813 13.032057 7.49958 20.531636 7.49958h166.097251c7.253692 0 14.38444-2.458879 20.03986-7.130748l35.65374-28.645936H283.324289z" fill="#80CFF5" /><path d="M503.762757 99.707528H337.665506c-14.138552 0-27.908272-5.040701-38.727338-14.015608L205.50078 7.376636h434.11502L541.506543 86.429583c-10.573178 8.483131-23.974067 13.277945-37.743786 13.277945zM283.324289 35.65374l33.809581 28.277104c5.778365 4.794813 13.032057 7.49958 20.531636 7.49958h166.097251c7.253692 0 14.38444-2.458879 20.03986-7.130748l35.65374-28.645936H283.324289z" fill="#1C1B55" /><path d="M527.245047 544.026894c-1.967103 7.991356-1.598271 15.245047 1.22944 21.88402s6.147197 12.048505 10.204346 16.228599l158.720615 133.762996V896.261256h-81.142995l143.352624 90.978509 20.162804-19.05631-72.782807-51.882338 16.351543-20.162805v-199.169168L527.245047 544.026894z" fill="#80CFF5" /></svg>