<?xml version="1.0" standalone="no"?><!DOCTYPE svg PUBLIC "-//W3C//DTD SVG 1.1//EN" "http://www.w3.org/Graphics/SVG/1.1/DTD/svg11.dtd"><svg class="icon" width="200px" height="200.00px" viewBox="0 0 1024 1024" version="1.1" xmlns="http://www.w3.org/2000/svg"><path d="M187.076923 292.923077h647.384615c20.430769 0 36.923077 16.492308 36.923077 36.923077v459.692308H150.153846V329.846154c0-20.430769 16.492308-36.923077 36.923077-36.923077z" fill="#FFFFFF" /><path d="M897.230769 815.384615H124.307692V329.846154c0-34.584615 28.184615-62.769231 62.769231-62.769231h647.384615c34.584615 0 62.769231 28.184615 62.769231 62.769231v485.538461z m-747.076923-25.846153h721.230769V329.846154c0-20.307692-16.615385-36.923077-36.923077-36.923077H187.076923c-20.307692 0-36.923077 16.615385-36.923077 36.923077v459.692308z" fill="#1C1B55" /><path d="M185.476923 292.184615l48.123077 83.815385-48.123077 63.384615 656.615385-8.123077-44.061539-65.476923 48.369231-73.6z" fill="#FFF7A6" /><path d="M277.907692 434.953846l24.984616-68.061538c9.107692-24.738462 32.615385-41.107692 58.953846-41.107693h309.538461c34.707692 0 62.769231 28.061538 62.769231 62.769231 0 2.338462-0.123077 4.553846-0.369231 6.892308l-4.307692 39.630769H277.907692z" fill="#7FCDF3" /><path d="M751.384615 459.569231H242.707692l37.169231-101.169231c12.553846-34.215385 45.538462-57.230769 82.092308-57.230769h309.538461c48.123077 0 87.384615 39.261538 87.384616 87.384615 0 3.2-0.123077 6.4-0.492308 9.476923l-7.015385 61.538462z m-473.476923-24.615385h451.446154l4.307692-39.630769c0.246154-2.215385 0.369231-4.553846 0.369231-6.892308 0-34.584615-28.184615-62.769231-62.769231-62.769231H361.846154c-26.215385 0-49.846154 16.492308-58.953846 41.107693l-24.984616 68.184615z" fill="#1C1B55" /><path d="M559.630769 449.353846c-6.4 0-12.8-1.353846-18.830769-4.061538-11.446154-5.046154-20.184615-14.276923-24.738462-25.846154l-3.56923-9.107692c-5.169231-13.415385-16.738462-23.138462-30.769231-25.846154L307.323077 349.538462c-6.646154-1.353846-10.953846-7.876923-9.6-14.523077 1.353846-6.646154 7.876923-10.953846 14.523077-9.6l174.4 34.953846c22.4 4.430769 40.615385 19.815385 48.861538 41.107692l3.569231 9.107692c2.092308 5.538462 6.276923 9.846154 11.692308 12.307693 5.415385 2.338462 11.446154 2.584615 16.984615 0.36923 0.984615-0.369231 1.846154-0.738462 2.707692-1.230769l152.738462-84.307692c5.907692-3.323077 13.415385-1.107692 16.738462 4.8 3.323077 5.907692 1.107692 13.415385-4.8 16.738461l-152.738462 84.307693c-1.846154 0.984615-3.815385 1.969231-5.661538 2.707692-5.661538 1.969231-11.323077 3.076923-17.107693 3.076923z" fill="#1C1B55" /><path d="M624 434.461538h38.153846V274.461538v-1.846153C662.153846 179.815385 606.646154 119.384615 513.846154 119.384615S359.384615 179.815385 359.384615 272.615385V434.461538h44.307693V272c0.369231-60.553846 49.476923-109.538462 110.153846-109.538462s109.784615 48.984615 110.153846 109.538462v162.461538z" fill="#7FCDF3" /><path d="M686.769231 459.076923h-87.384616V272.123077c-0.246154-46.892308-38.646154-85.046154-85.538461-85.046154s-85.292308 38.153846-85.538462 85.046154V459.076923h-93.538461V274.584615v-1.96923c0-52.061538 17.107692-96.615385 49.6-128.738462C416.738462 111.753846 461.538462 94.769231 513.846154 94.769231 618.953846 94.769231 686.769231 164.553846 686.769231 272.615385V459.076923z m-62.769231-24.615385h38.153846V272.615385C662.153846 178.092308 605.292308 119.384615 513.846154 119.384615c-45.661538 0-84.430769 14.523077-112.123077 41.969231S359.384615 227.2 359.384615 272.615385V434.461538h44.307693V272c0.369231-60.430769 49.723077-109.538462 110.153846-109.538462s109.784615 49.107692 110.153846 109.538462v162.461538z" fill="#1C1B55" /><path d="M220.061538 372.061538v72.615385" fill="#FFFFFF" /><path d="M207.753846 372.061538h24.615385v72.615385h-24.615385z" fill="#1C1B55" /><path d="M806.153846 369.230769v72.615385" fill="#FFFFFF" /><path d="M791.384615 369.230769h29.538462v72.615385h-29.538462z" fill="#1C1B55" /><path d="M361.230769 432h17.107693V279.630769c0-14.769231 2.584615-29.292308 7.753846-43.076923 11.446154-30.769231 25.353846-52.923077 41.723077-66.461538 29.415385-24.492308 40.615385-27.692308 68.184615-35.446154 18.338462-5.169231 42.830769-6.646154 73.476923-4.430769-26.707692-9.107692-50.215385-12.061538-70.4-9.107693-27.692308 2.092308-52.553846 12.184615-71.261538 24.492308-27.446154 18.215385-47.507692 45.538462-59.938462 81.969231-4.430769 12.8-6.646154 26.338462-6.646154 39.876923V432zM870.030769 461.292308L153.230769 689.230769v97.6h716.8z" fill="#D4F1FF" /><path d="M839.384615 903.753846H182.153846c-18.338462 0-33.230769-14.892308-33.230769-33.230769V813.538462h723.692308v56.984615c0 18.338462-14.892308 33.230769-33.23077 33.230769z" fill="#7FCDF3" /><path d="M839.384615 928.369231H182.153846c-31.876923 0-57.846154-25.969231-57.846154-57.846154V788.923077h772.923077v81.6c0 31.876923-25.969231 57.846154-57.846154 57.846154zM148.923077 813.538462v56.984615c0 18.338462 14.892308 33.230769 33.230769 33.230769h657.230769c18.338462 0 33.230769-14.892308 33.23077-33.230769V813.538462H148.923077z" fill="#1C1B55" /><path d="M148.307692 470.276923c-5.784615 0-10.953846-3.323077-13.415384-8.492308-2.461538-5.292308-1.6-11.446154 2.215384-15.876923l62.892308-72.738461-40.861538-71.630769c-4.061538-7.138462-1.6-16.123077 5.538461-20.184616 7.138462-4.061538 16.123077-1.6 20.184615 5.538462l46.153847 80.615384c3.076923 5.415385 2.461538 12.307692-1.6 16.984616l-48.246154 55.753846 661.292307-8.861539-47.384615-51.323077c-4.8-5.292308-5.169231-13.169231-0.984615-18.830769l56.984615-75.938461c4.923077-6.523077 14.153846-7.876923 20.676923-2.953846 6.523077 4.923077 7.876923 14.153846 2.953846 20.676923l-49.6 66.092307 61.169231 66.584616c3.938462 4.307692 5.046154 10.461538 2.707692 15.876923s-7.507692 8.861538-13.415384 8.861538l-727.015385 9.846154h-0.246154z" fill="#1C1B55" /><path d="M867.815385 312.246154c2.584615 4.307692 4.061538 7.753846 4.676923 10.707692 0.492308 2.830769 0.492308 35.938462 0 99.323077l-47.384616-51.569231 42.707693-58.461538z" fill="#7FCDF3" /><path d="M391.384615 598.153846h242.461539c2.092308 0 3.692308 1.6 3.692308 3.692308v107.076923c0 2.092308-1.6 3.692308-3.692308 3.692308H391.384615c-2.092308 0-3.692308-1.6-3.692307-3.692308v-107.076923c0-2.092308 1.6-3.692308 3.692307-3.692308z" fill="#FFFFFF" /><path d="M646.769231 738.461538h-268.307693c-9.107692 0-16.615385-7.507692-16.615384-16.615384v-132.923077c0-9.107692 7.507692-16.615385 16.615384-16.615385h268.307693c9.107692 0 16.615385 7.507692 16.615384 16.615385v132.923077c0 9.107692-7.507692 16.615385-16.615384 16.615384zM387.692308 712.615385h249.846154v-114.461539H387.692308v114.461539z" fill="#1C1B55" /></svg>