<?xml version="1.0" standalone="no"?><!DOCTYPE svg PUBLIC "-//W3C//DTD SVG 1.1//EN" "http://www.w3.org/Graphics/SVG/1.1/DTD/svg11.dtd"><svg class="icon" width="200px" height="200.00px" viewBox="0 0 1024 1024" version="1.1" xmlns="http://www.w3.org/2000/svg"><path d="M247.507692 207.876923h535.138462c27.692308 0 50.092308 22.4 50.092308 50.092308v313.969231H197.415385V257.969231c0-27.692308 22.4-50.092308 50.092307-50.092308z" fill="#FFFFFF" /><path d="M861.046154 600.246154H169.107692V257.969231c0-43.2 35.2-78.4 78.4-78.4h535.138462c43.2 0 78.4 35.2 78.4 78.4v342.276923z m-663.630769-28.307692h635.323077V257.969231c0-27.569231-22.523077-50.092308-50.092308-50.092308H247.507692c-27.569231 0-50.092308 22.523077-50.092307 50.092308v313.969231z" fill="#1C1B55" /><path d="M269.538462 374.153846l572.184615 22.523077v40.615385L269.538462 432.492308z" fill="#D4F1FF" /><path d="M127.630769 360.615385h98.461539c8.123077 0 14.769231 6.646154 14.76923 14.76923v181.538462c0 8.123077-6.646154 14.769231-14.76923 14.769231h-98.461539c-8.123077 0-14.769231-6.646154-14.769231-14.769231V375.384615c0-8.123077 6.523077-14.769231 14.769231-14.76923z" fill="#7FCDF3" /><path d="M226.092308 600h-98.461539c-23.753846 0-43.076923-19.323077-43.076923-43.076923V375.384615c0-23.753846 19.323077-43.076923 43.076923-43.076923h98.461539c23.753846 0 43.076923 19.323077 43.076923 43.076923v181.538462c0 23.753846-19.323077 43.076923-43.076923 43.076923z m-98.461539-239.384615c-8.123077 0-14.769231 6.646154-14.769231 14.76923v181.538462c0 8.123077 6.646154 14.769231 14.769231 14.769231h98.461539c8.123077 0 14.769231-6.646154 14.76923-14.769231V375.384615c0-8.123077-6.646154-14.769231-14.76923-14.76923h-98.461539z" fill="#1C1B55" /><path d="M803.2 365.415385h93.538462c8.123077 0 14.769231 6.646154 14.76923 14.76923v176.615385c0 8.123077-6.646154 14.769231-14.76923 14.769231h-93.538462c-8.123077 0-14.769231-6.646154-14.769231-14.769231V380.184615c0-8.246154 6.646154-14.769231 14.769231-14.76923z" fill="#7FCDF3" /><path d="M896.738462 599.876923h-93.538462c-23.753846 0-43.076923-19.323077-43.076923-43.076923V380.184615c0-23.753846 19.323077-43.076923 43.076923-43.076923h93.538462c23.753846 0 43.076923 19.323077 43.076923 43.076923v176.615385c0 23.753846-19.323077 43.076923-43.076923 43.076923z m-93.538462-234.461538c-8.123077 0-14.769231 6.646154-14.769231 14.76923v176.615385c0 8.123077 6.646154 14.769231 14.769231 14.769231h93.538462c8.123077 0 14.769231-6.646154 14.76923-14.769231V380.184615c0-8.123077-6.646154-14.769231-14.76923-14.76923h-93.538462z" fill="#1C1B55" /><path d="M241.107692 389.046154l-69.16923 2.461538c-16.369231 0.615385-29.661538 13.415385-30.769231 29.784616l-10.338462 150.030769c-8.861538 1.353846-17.107692-4.8-18.461538-13.661539-0.123077-0.861538-0.246154-1.723077-0.123077-2.584615l1.476923-182.030769c0-6.030769 5.046154-10.953846 11.076923-10.953846h101.415385c7.015385 0 12.8 5.292308 13.538461 12.307692l1.353846 14.646154z" fill="#D4F1FF" /><path d="M883.076923 590.276923l16.738462 45.046154" fill="#FFFFFF" /><path d="M869.097846 595.470769l27.928616-10.343384 16.670769 45.00923-27.929846 10.344616z" fill="#1C1B55" /><path d="M440.615385 208.123077v224.861538" fill="#FFFFFF" /><path d="M425.723077 208.123077h29.784615v224.861538h-29.784615z" fill="#1C1B55" /><path d="M576 208.123077v224.861538" fill="#FFFFFF" /><path d="M561.107692 208.123077h29.784616v224.861538h-29.784616z" fill="#1C1B55" /><path d="M751.630769 193.230769l-21.169231 31.261539c-12.553846 18.584615-19.2 40.492308-19.2 62.892307V432" fill="#FFFFFF" /><path d="M726.153846 432h-29.784615V287.384615c0-25.476923 7.507692-50.092308 21.784615-71.261538l21.169231-31.261539 24.738461 16.615385-21.16923 31.261539c-10.953846 16.369231-16.738462 35.2-16.738462 54.646153V432z" fill="#1C1B55" /><path d="M280.984615 197.292308l22.276923 40.492307c10.215385 18.584615 15.507692 39.384615 15.507693 60.553847v134.153846" fill="#FFFFFF" /><path d="M333.661538 432.615385h-29.784615v-134.153847c0-18.584615-4.8-37.046154-13.661538-53.415384l-22.276923-40.615385 26.092307-14.276923 22.276923 40.492308c11.323077 20.676923 17.353846 44.184615 17.353846 67.815384v134.153847z" fill="#1C1B55" /><path d="M155.569231 590.276923l-16.738462 45.046154" fill="#FFFFFF" /><path d="M124.955077 630.211692l16.670769-45.014154 27.932308 10.344616-16.670769 45.014154z" fill="#1C1B55" /><path d="M269.538462 461.538462h490.707692v109.292307H269.538462z" fill="#D4F1FF" /><path d="M788.553846 599.138462H241.230769V433.230769h547.323077v165.907693z m-519.015384-28.307693h490.707692V461.538462H269.538462v109.292307z" fill="#1C1B55" /><path d="M312 687.876923h403.938462L763.323077 830.769231H272.615385z" fill="#FFF7A6" /><path d="M802.584615 859.076923H235.446154L290.461538 659.569231h445.784616L802.584615 859.076923z m-529.96923-28.307692h490.707692l-47.384615-142.892308H312l-39.384615 142.892308z" fill="#1C1B55" /><path d="M462.892308 802.953846c-3.938462 0-7.507692-0.738462-10.953846-2.338461-13.046154-5.784615-17.476923-19.938462-21.784616-33.723077-3.938462-12.676923-8.123077-25.846154-17.846154-34.338462-5.292308-4.553846-8.738462-4.676923-29.415384 12.553846-14.769231 12.184615-33.107692 27.323077-56.492308 27.323077-18.584615 0-32.369231-5.046154-40.984615-15.138461-8.123077-9.476923-10.953846-22.276923-8.492308-38.153846l29.538461 4.553846c-0.615385 3.938462-1.230769 10.953846 1.723077 14.276923 2.584615 3.076923 9.353846 4.8 18.461539 4.8 12.676923 0 25.353846-10.461538 37.538461-20.553846 9.476923-7.876923 18.461538-15.261538 28.676923-19.2 14.030769-5.415385 27.692308-2.953846 39.384616 7.261538 16 14.030769 22.153846 33.6 26.584615 47.753846 1.476923 4.923077 3.815385 11.938462 5.538462 14.892308 0.615385-0.123077 1.6-0.492308 2.953846-1.107692 10.707692-4.8 21.046154-20.8 30.153846-34.83077 11.815385-18.092308 22.030769-33.846154 38.030769-35.2 5.661538-0.492308 14.030769 0.738462 22.276923 9.353847 11.569231 12.307692 16.861538 27.323077 21.046154 39.384615 6.646154 18.953846 8.369231 19.815385 12.923077 19.815385-0.123077 0 2.707692-0.492308 8.615385-7.138462 5.169231-5.661538 10.707692-13.538462 16-21.169231 13.415385-19.2 26.092308-37.415385 43.938461-39.507692 5.661538-0.615385 14.276923 0.123077 22.769231 7.753846 15.507692 13.784615 23.261538 31.138462 29.538462 45.046154 2.338462 5.292308 5.538462 12.307692 7.630769 15.015385 5.415385-0.984615 11.938462-8.123077 18.092308-19.692308l26.338461 13.907692c-12.430769 23.753846-27.938462 35.815385-45.784615 35.815385-18.830769 0-26.584615-17.353846-33.476923-32.738462-5.292308-11.938462-11.323077-25.353846-22.153847-34.953846l-0.123076-0.123077c-5.538462 2.584615-16.369231 18.215385-22.276924 26.707692-14.153846 20.184615-28.676923 41.107692-49.107692 41.107693-27.2 0-35.2-23.015385-41.107692-39.876923-3.446154-9.846154-7.015385-20.061538-13.415385-27.569231-4.184615 4.061538-10.461538 13.661538-14.769231 20.430769-11.323077 17.476923-24.246154 37.169231-42.830769 45.661539-6.030769 2.584615-11.569231 3.938462-16.738461 3.938461z" fill="#1C1B55" /><path d="M911.261538 379.569231h-72.861538c-17.353846 0-31.507692 13.784615-32 31.138461l-4.553846 160.738462h-13.415385V377.846154c0-6.153846 4.923077-11.076923 11.076923-11.076923h100.676923c6.153846 0 11.076923 4.923077 11.076923 11.076923v1.723077z" fill="#D4F1FF" /><path d="M269.538462 534.892308l490.953846 19.938461v18.215385L269.538462 569.723077z" fill="#7FCDF3" /></svg>